<?xml version="1.0" standalone="no"?>
<!DOCTYPE svg PUBLIC "-//W3C//DTD SVG 1.1//EN" "http://www.w3.org/Graphics/SVG/1.1/DTD/svg11.dtd" >
<!--
2013-9-30: Created.
-->
<svg>
<metadata>
Created by iconfont
</metadata>
<defs>

<font id="iconfont" horiz-adv-x="1024" >
  <font-face
    font-family="iconfont"
    font-weight="500"
    font-stretch="normal"
    units-per-em="1024"
    ascent="896"
    descent="-128"
  />
    <missing-glyph />
    
    <glyph glyph-name="x" unicode="x" horiz-adv-x="1001"
d="M281 543q-27 -1 -53 -1h-83q-18 0 -36.5 -6t-32.5 -18.5t-23 -32t-9 -45.5v-76h912v41q0 16 -0.5 30t-0.5 18q0 13 -5 29t-17 29.5t-31.5 22.5t-49.5 9h-133v-97h-438v97zM955 310v-52q0 -23 0.5 -52t0.5 -58t-10.5 -47.5t-26 -30t-33 -16t-31.5 -4.5q-14 -1 -29.5 -0.5
t-29.5 0.5h-32l-45 128h-439l-44 -128h-29h-34q-20 0 -45 1q-25 0 -41 9.5t-25.5 23t-13.5 29.5t-4 30v167h911zM163 247q-12 0 -21 -8.5t-9 -21.5t9 -21.5t21 -8.5q13 0 22 8.5t9 21.5t-9 21.5t-22 8.5zM316 123q-8 -26 -14 -48q-5 -19 -10.5 -37t-7.5 -25t-3 -15t1 -14.5
t9.5 -10.5t21.5 -4h37h67h81h80h64h36q23 0 34 12t2 38q-5 13 -9.5 30.5t-9.5 34.5q-5 19 -11 39h-368zM336 498v228q0 11 2.5 23t10 21.5t20.5 15.5t34 6h188q31 0 51.5 -14.5t20.5 -52.5v-227h-327z" />
    

    
    <glyph glyph-name="yaopin" unicode="&#58880;" d="M304.128 524.288q-14.336 0-21.504 5.12t-10.24 12.288q-4.096 8.192-4.096 18.432l0 67.584q0 19.456 7.68 29.184t16.896 14.848q11.264 5.12 24.576 5.12l396.288 0q13.312 0 24.576-5.12 9.216-5.12 16.896-14.848t7.68-29.184l0-67.584q0-10.24-4.096-18.432-3.072-7.168-9.728-12.288t-20.992-5.12l-423.936 0zM837.632-47.104q0-22.528-8.192-40.96-7.168-15.36-22.016-27.648t-42.496-12.288l-497.664 0q-28.672 0-43.008 12.288t-21.504 27.648q-8.192 18.432-9.216 40.96l0 382.976q0 33.792 12.288 48.128t22.528 24.576l72.704 67.584 443.392 0 58.368-67.584q10.24-10.24 22.528-24.576t12.288-48.128l0-382.976zM677.888 217.088l-107.52 0 0 108.544-109.568 0 0-108.544-107.52 0 0-109.568 107.52 0 0-107.52 109.568 0 0 107.52 107.52 0 0 109.568z"  horiz-adv-x="1024" />

    
    <glyph glyph-name="dingdan2" unicode="&#58881;" d="M871.82457031 25.974199219999946c0-35.38617188-28.69286133-64.07789062-64.08043945-64.07789063H198.91262963c-35.38845703 0-64.08131836 28.69171875-64.08131836 64.07789063V152.50335912000003c-0.75102539 3.94356445-1.22000977 7.97941406-1.22000977 12.10921875V761.18554898c0 35.38705078 28.69286133 64.07876953 64.08131836 64.07876954h64.33073666v0.21957724h473.12836534c91.20893555 0 135.63993164-42.20797852 135.63993164-122.821875v-427.19368797c0-11.95294922-1.37636719-22.7165625-3.47299804-32.85316406 2.81504883-7.22759766 4.50588867-15.04986328 4.50588867-23.27871094V25.974164599999995zM339.46507812 665.28735352h-64.08128717c-26.56371094 0-48.06026367-21.51070312-48.06026368-48.05841797s21.49655273-48.05841797 48.06026368-48.05841797h64.08128717c26.53294922 0 48.06026367 21.51070312 48.06026368 48.05841797S365.99811523 665.28735352 339.46507812 665.28735352zM730.61509766 665.28735352H499.66701404c-26.56458984 0-48.06026367-21.51070312-48.06026368-48.05841797s21.49655273-48.05841797 48.06026367-48.05841797h230.94805605c26.53382812 0 48.06114258 21.51070312 48.06114258 48.05841797S757.14892578 665.28735352 730.61509766 665.28735352zM730.61509766 473.05192383H277.38732734c-26.56458984 0-48.06114258-21.51070312-48.06114257-48.05841797 0-26.53286133 21.49655273-48.05929688 48.06114257-48.05929688h453.22774274c26.53382812 0 48.06114258 21.52643555 48.06114258 48.05929688C778.67536133 451.54209961 757.14892578 473.05192383 730.61509766 473.05192383zM730.61509766 280.81728516H277.38732734c-26.56458984 0-48.06114258-21.52643555-48.06114257-48.05841797 0-26.53286133 21.49655273-48.05929688 48.06114257-48.05929688h453.22774274c26.53382812 0 48.06114258 21.52643555 48.06114258 48.05929688C778.67536133 259.29076172 757.14892578 280.81728516 730.61509766 280.81728516z"  horiz-adv-x="1000" />

    
    <glyph glyph-name="zuoji" unicode="&#58884;" d="M666.6875 491.2125q18.45-21.965625 39.54375001-44.83125001 17.578125-20.221875 39.12187499-44.83124999t44.38125-50.090625q28.996875-33.4125 47.89687501-59.76562499t29.89687499-48.34687501 14.934375-40.44375 3.965625-36.928125l0-57.121875q0-26.38125001-8.803125-47.475t-24.159375-36.478125-35.15625-23.7375-41.7375-8.353125l-542.27812501 0q-23.7375 0-45.25312499 7.903125t-37.8 22.415625-25.93125 34.70625-9.675 45.703125l0 67.66875001q0 21.09375001 3.965625 40.44374999t14.5125 40.44375001 28.996875 45.25312499 46.575 53.18437501q22.865625 24.609375 47.025 49.66874999t43.50937499 45.253125q22.865625 23.7375 43.95937501 45.70312501l322.56562499 0zM501.453125 158.12812499999995q22.865625 0 43.059375 8.80312499t35.15625001 23.7375 23.7375 35.60625001 8.80312499 43.509375-8.80312499 43.05937501-23.7375 35.15624999-35.15625001 23.7375-43.059375 8.803125-43.50937501-8.803125-35.60624999-23.7375-23.7375-35.15625001-8.803125-43.05937499 8.803125-43.509375 23.7375-35.60625001 35.60625001-23.7375 43.50937499-8.80312499zM941.778125 597.5812500100001l0-55.37812501q0-22.865625-16.25625-38.67187501t-39.121875-15.83437499l-109.85624999 0q-22.865625 0-38.67187501 15.83437499t-15.834375 38.67187501l0 55.37812499-440.325 0 0-55.37812499q0-22.865625-15.834375-38.67187501t-38.67187501-15.83437499l-109.85624999 0q-22.865625 0-39.121875 15.83437499t-16.25625 38.67187501l0 57.121875q0 10.546875 5.2875 18.028125t13.190625 13.6125 17.578125 10.996875 19.35 10.996875q9.675 5.2875 43.509375 23.2875t85.246875 37.35 116.8875 34.28437501 139.303125 14.93437499q84.375 0 150.721875-14.93437499t115.14375-34.28437501 78.21562499-37.35 39.99375001-23.2875q10.546875-6.159375 20.221875-10.996875t17.578125-10.996875 12.740625-13.6125 4.8375-18.028125l0-1.771875z"  horiz-adv-x="1024" />

    
    <glyph glyph-name="iconsj" unicode="&#58905;" d="M511.20230094 804.13562813c-230.98930969 0-418.25818125-187.20555469-418.25818125-418.19774157 0-230.98739062 187.26887156-418.22460375 418.25818125-418.22460375 230.95956938 0 418.1967825 187.23721313 418.1967825 418.22460375C929.39908344 616.93007344 742.16187031 804.13562813 511.20230094 804.13562813L511.20230094 804.13562813zM720.36640719 339.78166031L498.30096781 339.78166031c-4.69601625 0-9.20495906 0.93536625-13.33975593 2.69001657-12.27295875 5.19775594-20.92245469 17.38149562-20.92245469 31.56547875L464.03875813 596.10451312c0 18.94235719 15.34479656 34.28907187 34.26221062 34.28907188 18.98169 0 34.3255275-15.34671469 34.3255275-34.28907188l0-187.74087187 187.73991188 0c18.9490725 0 34.28907187-15.34479656 34.28907187-34.29386906C754.65548 355.12645594 739.31068344 339.78166031 720.36640719 339.78166031L720.36640719 339.78166031zM720.36640719 339.78166031"  horiz-adv-x="1024" />

    
    <glyph glyph-name="unie612" unicode="&#59078;" d="M657.47626667 359.76533333c107.17866667 0 193.97973333 87.04 193.97973333 193.97973334 0 107.17866667-86.80106667 193.97973333-193.97973333 193.97973333s-193.97973333-86.80106667-193.97973334-193.97973333c0-106.93973333 86.80106667-193.97973333 193.97973334-193.97973334zM221.04746667 456.73813333l0 145.47626667-96.9728 0 0-145.47626667-145.47626667 0 0-96.9728 145.47626667 0 0-145.47626666 96.9728 0 0 145.47626666 145.47626666 0 0 96.9728-145.47626666 0zM657.47626667 262.75840000000005c-129.2288 0-387.95946667-64.75093333-387.95946667-193.97973333l0-96.9728 775.91893333 0 0 96.9728c0 129.2288-258.73066667 193.97973333-387.95946666 193.97973333z"  horiz-adv-x="1024" />

    
    <glyph glyph-name="cheliangguanli" unicode="&#58910;" d="M375.75566222 94.16135111000006c-11.01255111 28.93710222-34.61006222 51.69948445-64.10012444 61.14417778-9.72117333 3.14823111-20.04764445 4.84352-30.77916445 4.84352s-21.09895111-1.69528889-30.81784888-4.84352c-29.44910222-9.44469333-53.04661333-32.20707555-64.10012445-61.14417778-2.33813333-6.25664-4.11534222-12.79544889-5.24288-19.53450666-0.96938667-5.56942222-1.53372445-11.30154667-1.53372445-17.07121778 0-0.84992 0.08078222-1.61564445 0.12174223-2.42232889 1.29024-55.49283555 46.27114667-100.29169778 101.57397333-100.29169778 55.30510222 0 100.32469333 44.8 101.61493334 100.29169778 0 0.80668445 0.08078222 1.57354667 0.08078222 2.42232889 0 5.81176889-0.5632 11.50179555-1.53258667 17.07121778-1.12981333 6.73905778-2.90588445 13.27786667-5.28497778 19.53450666zM982.45859555 187.75381332999996v145.73681778c0 112.76174222-73.69955555 171.04099555-76.84437333 173.46446222-3.38944 2.62257778-7.50364445 3.99473778-11.74072889 3.99473778h-155.46709333c-5.72871111 0-10.81116445-2.54293333-14.36103111-6.53880889v-320.97621333c0-3.30979555-1.37102222-6.29532445-3.38716444-8.59704889h-1.61450667c0-0.44259555 0.12174222-0.84992 0.16156444-1.29024-2.21866667-1.85685333-4.96412445-3.06858667-8.02816-3.06858667h-369.30673777c7.70389333-4.31672889 14.92650667-9.40373333 21.5802311-15.17681778 18.51392-15.94140445 32.47217778-37.05059555 39.53322667-61.14417777 1.89667555-6.33628445 3.18691555-12.87395555 4.07552-19.53450667 0.76458667-5.60924445 1.28910222-11.30154667 1.28910223-17.07121778 0-0.84992-0.08078222-1.61564445-0.12060445-2.42232888h283.94837333c-0.03982222 0.80668445-0.12174222 1.57354667-0.12174222 2.42232888 0 5.77080889 0.52565333 11.46083555 1.29024 17.07121778 0.84878222 6.66055111 2.17770667 13.19822222 4.03456 19.53450667 7.14069333 24.09472 21.05799111 45.24145778 39.57532444 61.14417777h1.45180445c-0.44145778 0-0.88746667 0.12174222-1.3312 0.16156445 9.11587555 7.82904889 19.36384 14.36899555 30.41507555 19.37294222 8.26936889 3.75239111 16.98360889 6.69923555 26.05852445 8.59704889 8.38997333 1.81703111 17.10421333 2.74318222 26.01870222 2.74318222 8.87239111 0 17.58776889-0.92842667 25.97888-2.74318222 9.11587555-1.89781333 17.82897778-4.84352 26.05852445-8.59704889 11.13429333-5.04490667 21.41980445-11.62467555 30.57664-19.53450667 18.47523555-15.94140445 32.43349333-37.05059555 39.53322666-61.14417777 1.85571555-6.33628445 3.18691555-12.87395555 4.03456-19.53450667 0.80668445-5.60924445 1.29024-11.30154667 1.29024-17.07121778 0-0.84992-0.08078222-1.61564445-0.12174222-2.42232888h21.13877334c10.69056 0 19.32288 8.71879111 19.32288 19.49354666v100.21205334c0.00227555 4.9664-1.93422222 9.48451555-4.91975112 12.9171911zM914.48547555 94.16135111000006c-11.05351111 28.93710222-34.65329778 51.69948445-64.13880888 61.14417778-9.72117333 3.14823111-20.04764445 4.84352-30.77916445 4.84352-10.73265778 0-21.05799111-1.69528889-30.81898667-4.84352-29.48892445-9.44469333-53.08529778-32.20707555-64.09898666-61.14417778-2.38250667-6.25664-4.15516445-12.79544889-5.28384-19.53450666-0.92842667-5.56942222-1.53258667-11.26058667-1.53258667-17.07121778 0-0.84992 0.12060445-1.61564445 0.12060445-2.42232889 1.29024-55.49283555 46.30983111-100.29169778 101.61607111-100.29169778s100.28259555 44.8 101.57397333 100.29169778c0.03982222 0.80668445 0.12174222 1.57354667 0.12174222 2.42232889 0 5.81176889-0.60529778 11.50179555-1.53372444 17.07121778-1.12981333 6.73905778-2.90588445 13.27786667-5.24401778 19.53450666zM679.46837333 194.93888000000004v1.49276445h18.79950222v370.4570311c0 0.96938667 0.36408889 1.85571555 0.5632 2.78300445v57.22908445c0 10.77589333-8.67328 19.53336889-19.36270222 19.53336888h-260.51128888c6.81642667-22.51889778 10.48803555-46.37127111 10.48803555-71.07015111 0-135.24423111-109.63968-244.93966222-244.81792-244.93966222-47.92433778 0-92.65948445 13.80238222-130.41550222 37.61493333v-171.60647111h19.32288v-1.49276444h605.93379555zM198.30215111 155.30439110999998c6.61617778 5.77194667 13.83765333 10.85781333 21.58023111 15.17681778 2.90588445 1.57354667 5.89027555 2.98666667 8.91562667 4.35768889 0.44259555 0.16156445 0.80668445 0.40277333 1.24928 0.5632h-136.54698667c0-0.16156445-0.03982222-0.36408889-0.03982222-0.5632v-100.21205333c0-10.77475555 8.59136-19.49354667 19.28192-19.49354667h40.78136889c0 0.80668445-0.12174222 1.57354667-0.12174222 2.42232889 0 5.77080889 0.52451555 11.46083555 1.25041778 17.07121778 0.88746667 6.66055111 2.17770667 13.19822222 4.07438222 19.53450666 7.09973333 24.09244445 21.05799111 45.20163555 39.57304888 61.14417778zM91.16444445 422.96547555l22.70776888 24.09472c10.24796445-5.81176889 24.60672-10.33216 31.54602667-13.56117333v-34.06279111c0-10.73720889 11.33454222-19.41276445 22.06492445-19.41276444h38.80846222c10.73038222 0 22.10474667 8.67783111 22.10474666 19.41276444v34.06279111c6.89720889 3.22787555 21.25824 7.78922667 31.54375112 13.59985778l23.35630222-24.05262222c7.58442667-7.58670222 19.52654222-7.58670222 27.10869333 0l27.30780445 27.44433777c7.54460445 7.58670222 7.46154667 19.89859555-0.12060445 27.48416l-24.08334222 22.72256c5.80608 10.25137778 10.32760889 24.61923555 13.55207111 31.51985778h34.04686222c10.73038222 0 19.40366222 11.38005333 19.40366222 22.11726222v38.82780445c0 10.73607111-8.67555555 22.07744-19.40366222 22.07744h-34.04686222c-3.2256 6.94044445-7.78695111 21.30944-13.59416889 31.60064l24.04352 23.36768c7.58101333 7.58670222 7.58101333 19.53336889 0 27.12120889l-27.43068445 27.28163556c-7.58442667 7.58784-19.88608 7.50592-27.47050666-0.07964445l-22.71118222-24.09585778c-10.20700445 5.81176889-24.60672 10.33216-31.50392889 13.56231111v34.06392889c0 10.73607111-11.37664 19.41276445-22.10474667 19.41276445h-38.80846222c-10.73265778 0-22.06492445-8.67896889-22.06492444-19.41276445v-34.06279111c-6.93816889-3.22901333-21.29806222-7.79036445-31.54602667-13.60099556l-23.39726223 24.05262223c-7.58442667 7.58784-19.52654222 7.58784-27.10869333 0l-27.27025777-27.44206223c-7.58101333-7.58784-7.50250667-19.85877333 0.08078222-27.48529777l24.08334222-22.72142223c-5.80721778-10.25251555-10.32760889-24.61923555-13.55434667-31.56081777h-34.00476444c-10.77134222 0.00113778-19.44348445-11.34136889-19.44348445-22.07630223v-38.8243911c0-10.73720889 8.67328-22.11726222 19.44348445-22.11726223h34.04572444c3.18805333-6.90062222 7.74485333-21.26961778 13.55434667-31.56081777l-24.04352-23.36768c-7.58101333-7.58784-7.58101333-19.53450667 0-27.1212089l27.43068444-27.32259555c7.58101333-7.54801778 19.88494222-7.46837333 27.47164445 0.12060445zM186.88796445 661.1262577800001c48.24519111 0 87.33354667-39.10769778 87.33354666-87.37792 0-48.26794667-39.08835555-87.37564445-87.33354666-87.37564445-48.24632889 0-87.33696 39.10769778-87.33696 87.37564445 0 48.26794667 39.08835555 87.37792 87.33696 87.37792z"  horiz-adv-x="1024" />

    
    <glyph glyph-name="shouye" unicode="&#58911;" d="M554.18543759 805.875L469.81456241 805.875 90.1351011 405.10345066c0 0 0.74240606-84.37171729 42.18754202-84.37171729s63.27878797 0 63.27878797 0 0-191.57117075 0-274.23249142c0-82.64532734 84.37255939-84.37424277 84.37255938-84.37424278l168.74764344 0c0 0 0 224.46684751 0 295.32626204 0 21.13249082 21.09377142 21.09377142 21.09377142 21.09377141l84.37087519 0c0 0 21.0946127-0.7020033 21.0946127-21.09377141 0-75.96956167 0-295.32626202 0-295.32626204s82.10662014 0 168.74596005 1e-8c86.63849781 0 84.37340066 84.37424277 84.37340067 84.37424277L828.40025229 341.82466268999997c0 0 22.4110794 0 63.28047135 0 40.86686646 0 42.18417527 63.27794586 42.18417526 63.27794586L554.18543759 805.875z"  horiz-adv-x="1024" />

    
    <glyph glyph-name="gerenxinxibumen" unicode="&#58912;" d="M402.8416 658.0224000000001c0-14.336 2.8672-28.672 8.3968-41.7792 5.5296-13.1072 13.5168-25.3952 23.7568-35.4304 10.0352-10.0352 22.3232-18.2272 35.4304-23.7568 13.312-5.5296 27.4432-8.3968 41.7792-8.3968s28.672 2.8672 41.7792 8.3968c13.1072 5.5296 25.3952 13.5168 35.4304 23.7568 10.0352 10.0352 18.2272 22.3232 23.7568 35.4304 5.5296 13.312 8.3968 27.4432 8.3968 41.7792 0 14.336-2.8672 28.672-8.3968 41.7792-5.5296 13.1072-13.5168 25.3952-23.7568 35.4304-10.0352 10.0352-22.3232 18.2272-35.4304 23.7568-13.312 5.5296-27.4432 8.3968-41.7792 8.3968s-28.672-2.8672-41.7792-8.3968c-13.1072-5.5296-25.3952-13.5168-35.4304-23.7568-10.0352-10.0352-18.2272-22.3232-23.7568-35.4304C405.7088 686.6944 402.8416 672.3584 402.8416 658.0224000000001L402.8416 658.0224000000001zM402.8416 658.0224000000001M239.0016 357.78560000000004l245.76 0 54.6816 0 245.76 0 0-81.92L839.68 275.8656l0 81.92 0 54.6816-54.6816 0-245.76 0 0 81.92-54.6816 0 0-81.92-245.76 0L184.32 412.4672l0-54.6816 0-81.92 54.6816 0L239.0016 357.78560000000004zM239.0016 357.78560000000004M102.4 112.02560000000005c0-14.336 2.8672-28.672 8.3968-41.7792 5.5296-13.1072 13.5168-25.3952 23.7568-35.4304 10.0352-10.0352 22.3232-18.2272 35.4304-23.7568 13.312-5.5296 27.4432-8.3968 41.7792-8.3968 14.336 0 28.672 2.8672 41.7792 8.3968 13.1072 5.5296 25.3952 13.5168 35.4304 23.7568 10.0352 10.0352 18.2272 22.3232 23.7568 35.4304 5.5296 13.1072 8.3968 27.4432 8.3968 41.7792 0 14.336-2.8672 28.672-8.3968 41.7792-5.5296 13.1072-13.5168 25.3952-23.7568 35.4304-10.0352 10.0352-22.3232 18.2272-35.4304 23.7568-13.312 5.5296-27.4432 8.3968-41.7792 8.3968-14.336 0-28.672-2.8672-41.7792-8.3968-13.1072-5.5296-25.3952-13.5168-35.4304-23.7568-10.0352-10.0352-18.2272-22.3232-23.7568-35.4304C105.2672 140.4928 102.4 126.15679999999998 102.4 112.02560000000005L102.4 112.02560000000005zM102.4 112.02560000000005M703.0784 112.02560000000005c0-14.336 2.8672-28.672 8.3968-41.7792 5.5296-13.1072 13.5168-25.3952 23.7568-35.4304 10.0352-10.0352 22.3232-18.2272 35.4304-23.7568 13.1072-5.5296 27.4432-8.3968 41.7792-8.3968 14.336 0 28.672 2.8672 41.7792 8.3968 13.312 5.5296 25.3952 13.5168 35.4304 23.7568 10.0352 10.0352 18.2272 22.3232 23.7568 35.4304 5.5296 13.1072 8.3968 27.4432 8.3968 41.7792 0 14.336-2.8672 28.672-8.3968 41.7792-5.5296 13.1072-13.5168 25.3952-23.7568 35.4304-10.0352 10.0352-22.3232 18.2272-35.4304 23.7568-13.1072 5.5296-27.4432 8.3968-41.7792 8.3968-14.336 0-28.672-2.8672-41.7792-8.3968-13.1072-5.5296-25.3952-13.5168-35.4304-23.7568-10.0352-10.0352-18.2272-22.3232-23.7568-35.4304C705.9456 140.4928 703.0784 126.15679999999998 703.0784 112.02560000000005L703.0784 112.02560000000005zM703.0784 112.02560000000005M402.8416 112.02560000000005c0-14.336 2.8672-28.672 8.3968-41.7792 5.5296-13.1072 13.5168-25.3952 23.7568-35.4304 10.0352-10.0352 22.3232-18.2272 35.4304-23.7568 13.312-5.5296 27.4432-8.3968 41.7792-8.3968s28.672 2.8672 41.7792 8.3968c13.1072 5.5296 25.3952 13.5168 35.4304 23.7568 10.0352 10.0352 18.2272 22.3232 23.7568 35.4304 5.5296 13.1072 8.3968 27.4432 8.3968 41.7792 0 14.336-2.8672 28.672-8.3968 41.7792-5.5296 13.1072-13.5168 25.3952-23.7568 35.4304-10.0352 10.0352-22.3232 18.2272-35.4304 23.7568-13.312 5.5296-27.4432 8.3968-41.7792 8.3968s-28.672-2.8672-41.7792-8.3968c-13.1072-5.5296-25.3952-13.5168-35.4304-23.7568-10.0352-10.0352-18.2272-22.3232-23.7568-35.4304C405.7088 140.4928 402.8416 126.15679999999998 402.8416 112.02560000000005L402.8416 112.02560000000005zM402.8416 112.02560000000005"  horiz-adv-x="1024" />

    
    <glyph glyph-name="shape5" unicode="&#58901;" d="M829.38317891 365.11280741999997C831.09133057 378.77806114 832.37243926 392.44324629 832.37243926 406.96253057 832.37243926 421.48181573 831.09133057 435.147 829.38317891 448.81218427L919.48809131 519.2733925800001C927.60179961 525.6789 929.73698721 537.20893886 924.61253926 546.60376114L839.20503887 694.3587694299999C834.08059092 703.75359258 822.55058018 707.16985372 813.15575703 703.75359258L706.82341573 661.04983887C684.61746612 678.13128428 660.70337187 692.22355371 634.65408388 702.89949258L618.42665498 816.06445372C617.14554628 826.31330742 608.17775908 834 597.50182109 834L426.68682646 834C416.01088761 834 407.04310039 826.31330742 405.76198555 816.06445372L389.53456279 702.89949258C363.48527481 692.22355371 339.57117354 677.7042694300001 317.3652248 661.04983887L211.03288964 703.75359258C201.21102354 707.59686943 190.10804961 703.75359258 184.98360166 694.3587694299999L99.57610039 546.60376114C94.02461651 537.20893886 96.58684092 525.6789 104.70055537 519.2733925800001L194.80546778 448.81218427C193.09731612 435.147 191.81620039 421.05473057 191.81620039 406.96253057 191.81620039 392.87026113 193.09731612 378.77806114 194.80546778 365.11280741999997L104.70055537 294.65166942999997C96.58684092 288.24609258 94.45165332 276.71605371 99.57610039 267.32123057L184.98360166 119.56629257999998C190.10804961 110.17146943 201.63806651 106.75513887 211.03288964 110.17146943L317.3652248 152.87522315C339.57117354 135.79370742000003 363.48527481 121.70143886999995 389.53456279 111.02549999999997L405.76198555-2.139392580000049C407.04310039-12.388315720000037 416.01088761-20.07500742000002 426.68682646-20.07500742000002L597.50182109-20.07500742000002C608.17775908-20.07500742000002 617.14554628-12.388315720000037 618.42665498-2.139392580000049L634.65408388 111.02549999999997C660.70337187 121.70143886999995 684.61746612 136.22072315000003 706.82341573 152.87522315L813.15575703 110.17146943C822.97761612 106.32812315000001 834.08059092 110.17146943 839.20503887 119.56629257999998L924.61253926 267.32123057C929.73698721 276.71605371 927.60179961 288.24609258 919.48809131 294.65166942999997L829.38317891 365.11280741999997 829.38317891 365.11280741999997ZM512.09431982 257.49939257999995C429.67608594 257.49939257999995 362.63120205 324.54426943 362.63120205 406.96253057 362.63120205 489.38072315 429.67608594 556.4256 512.09431982 556.4256 594.51256075 556.4256 661.55744463 489.38072315 661.55744463 406.96253057 661.55744463 324.54426943 594.51256075 257.49939257999995 512.09431982 257.49939257999995L512.09431982 257.49939257999995Z"  horiz-adv-x="1024" />

    
    <glyph glyph-name="jiaoseguanli" unicode="&#59105;" d="M816.70625 805.875l-93.825 0-247.5 0L207.29375 805.875 113.58125 712.10625 113.58125-37.875l562.5 0 46.8 47.1375L722.88125 618.3375 676.75625 665.25 207.29375 665.25l46.85625 46.85625 515.64375 1.0125 46.9125-47.64375 0-608.625 93.7125 0L910.41875 712.3875 816.70625 805.875 816.70625 805.875zM253.3625 188.19375000000002c31.05 33.075 72.225 68.175 103.10625 78.24375 11.7 3.825 24.75 32.85 18.95625 51.1875-0.39375 1.0125-0.84375 1.85625-1.29375 2.8125-0.9 1.9125-1.6875 3.76875-3.20625 5.4C359.5625 338.1 352.86875 350.36249999999995 348.65 360.76874999999995 348.48125 361.1625 348.36875 361.44375 348.2 361.78125L348.2 361.95000000000005l0 0C347.8625 362.90625 347.46875 363.80625 347.1875 364.59375 346.7375 365.83124999999995 346.56875 366.67499999999995 346.175 367.79999999999995c-0.84375 2.475-1.63125 4.8375-2.30625 7.3125L343.86875 375.225c-0.28125 1.18125-0.5625 2.25-0.73125 3.43125C342.2375 383.32500000000005 341.95625 386.41875 341.95625 386.41875l0.225 0 0.16875 0c-0.1125 2.25-0.675 4.3875-0.675 6.6375 0 44.1 35.71875 79.81875 79.875 79.81875l0.05625 0 0 0c44.15625 0 79.875-35.71875 79.875-79.81875 0-2.25-0.5625-4.44375-0.675-6.6375l0.225 0 0.1125 0c0 0-0.225-3.09375-1.125-7.81875C499.85 377.475 499.625 376.35 499.2875 375.225c0-0.05625 0-0.05625 0-0.1125-0.5625-2.475-1.40625-4.8375-2.19375-7.3125-0.45-1.125-0.675-1.96875-1.06875-3.20625-0.28125-0.84375-0.61875-1.6875-1.0125-2.64375l0 0c0-0.05625-0.1125-0.1125-0.1125-0.16875C494.9 361.44375 494.7875 361.1625 494.50625 360.76874999999995 490.4 350.36249999999995 483.65 338.1 472.34375 325.78125 470.88125 324.20624999999995 469.925 322.29375000000005 469.08125 320.38125c-0.50625-0.95625-0.84375-1.8-1.29375-2.8125-5.79375-18.3375 7.14375-47.08125 18.95625-51.1875 32.2875-11.08125 72.16875-45.16875 103.10625-78.24375l0-36L527.24375 152.13750000000005 315.96875 152.13750000000005 253.3625 152.13750000000005 253.3625 188.19375000000002 253.3625 188.19375000000002 253.3625 188.19375000000002zM253.3625 188.19375000000002"  horiz-adv-x="1024" />

    
    <glyph glyph-name="dingdanchaxun" unicode="&#58916;" d="M680.852478 221.179137l13.337557 13.30338 13.270403 0 122.553509-163.219937c80.086102 81.178761 129.626713 192.608811 129.626713 315.652787 0 248.272471-201.285728 449.594775-449.594775 449.594775-248.306648 0-449.627752-201.322303-449.627752-449.594775 0-248.28846 201.321104-449.592376 449.627752-449.592376 81.056843 0 156.905418 21.749854 222.545114 59.287603-55.433216 68.965841-124.627303 155.900499-124.627303 155.900499l0 6.968276 14.709827 14.713224-24.462414 27.945853c-33.34799-17.105203-71.007657-26.924945-110.937185-26.924945-134.803004 0-244.473047 109.669844-244.473047 244.434274 0 134.818993 109.670044 244.473047 244.473047 244.473047 134.799606 0 244.470649-109.654055 244.470649-244.473047 0-66.731356-26.942133-127.250724-70.499002-171.455553L680.852478 221.179137zM329.141538 419.647375c0-87.178693 70.956292-158.099608 158.136184-158.099608 87.196881 0 158.136184 70.918717 158.136184 158.099608 0 87.215068-70.938104 158.137183-158.136184 158.137183C400.095631 577.784758 329.141538 506.864842 329.141538 419.647375z"  horiz-adv-x="1024" />

    
    <glyph glyph-name="bianji" unicode="&#58963;" d="M783.88789063 779.5078125C852.18417969 779.5078125 907.5078125 724.1841796900001 907.5078125 655.88789063c0-27.80419922-9.19160156-53.46474609-24.75878906-74.15771485l-49.39892578-49.40683594L660.32333984 705.35009766l49.40683594 49.40683593C730.42314453 770.31621094 756.08369141 779.5078125 783.88789063 779.5078125L783.88789063 779.5078125zM623.21679688 668.23564453L165.95439453 210.97324218999995 116.4921875-11.5078125l222.48105469 49.46220703L796.23564453 495.21679688 623.21679688 668.23564453zM323.23994141 152.60419922000005l-42.63574219 42.58037109 346.04560547 346.10888672 42.63574218-42.63574219L323.23994141 152.60419922000005z"  horiz-adv-x="1024" />

    
    <glyph glyph-name="dingdan3" unicode="&#58969;" d="M715.2932453 646.01091934c22.46648676 0 40.65890185 17.60472015 40.65890185 39.30222849L755.95214715 763.91928983c0 21.71099844-18.19241592 39.31487567-40.65890185 39.31487567-22.46732968 0-40.66058853-17.60387722-40.66058854-39.31487568l0-78.60614282C674.63434345 663.6156395 692.82760229 646.01091934 715.2932453 646.01091934zM308.70506803 646.01091934c22.46732968 0 40.65974478 17.60472015 40.65974478 39.30222849L349.36481363 763.91928983c0 21.71099844-18.19241592 39.31487567-40.65974478 39.31487567-22.46648676 0-40.65805893-17.60387722-40.65805894-39.31487568l0-78.60614282C268.04785285 663.6156395 286.24026794 646.01091934 308.70506803 646.01091934zM864.36633035 724.61706134l-67.75528052 0 0-39.30222848c0-43.39670168-36.41012622-78.60614282-81.31696078-78.60614282s-81.31527412 35.20944031-81.31527411 78.60614282L633.97881412 724.61706134l-40.65890186 0-2.71250464 0c0 0.92075042-33.70099411 0-78.60782867 0s-78.60529907-0.4089419-78.60529907 0l-2.71419132 0-40.65890185 0 0-39.30222848c0-43.39670168-36.38314434-78.60614282-81.31611786-78.60614282-44.90599164 0-81.31696079 35.20944031-81.31696079 78.60614282L227.38810723 724.61706134 159.63282672 724.61706134c-22.46648676 0-40.65974478-17.60556308-40.65974478-39.30222848l0-681.24508484c0-21.69835126 18.19325886-39.30307141 40.65974478-39.30307141l704.73518949 0c22.46648676 0 40.65890185 17.60472015 40.65890185 39.30307141L905.02691806 685.31483368C905.0252322 707.01149827 886.83197336 724.61706134 864.36633035 724.61706134zM688.18000317 95.77803964999998L335.81831015 95.77803964999998c-16.21769155 0-29.36958783 13.15189544-29.36958783 29.36115527 0 16.21937823 13.15189544 29.37127368 29.36958783 29.37127368l352.36084928 0c16.21937823 0 29.37127368-13.15189544 29.37127367-29.37127368C717.55127685 108.92993508999996 704.39938141 95.77803964999998 688.18000317 95.77803964999998zM688.18000317 247.55013840000004L335.81831015 247.55013840000004c-16.21769155 0-29.36958783 13.15189544-29.36958783 29.36115527 0 16.21937823 13.15189544 29.37127368 29.36958783 29.37127369l352.36084928 0c16.21937823 0 29.37127368-13.15189544 29.37127367-29.37127369C717.55127685 260.70203384 704.39938141 247.55013840000004 688.18000317 247.55013840000004zM688.18000317 399.32223633L335.81831015 399.32223633c-16.21769155 0-29.36958783 13.15273837-29.36958783 29.36199902 0 16.2185353 13.15189544 29.36958783 29.36958783 29.36958782l352.36084928 0c16.21937823 0 29.37127368-13.15105252 29.37127367-29.36958781C717.55127685 412.47413177 704.39938141 399.32223633 688.18000317 399.32223633z"  horiz-adv-x="1024" />

    
    <glyph glyph-name="kefu" unicode="&#59036;" d="M510.67583984 672.26586914c-120.49303711 0-218.14945312-95.60689453-218.14945312-213.57738281 0-117.95387695 97.65641602-213.57500977 218.14945312-213.57500977 120.49461914 0 218.15103516 95.62113281 218.15103516 213.57500977C728.826875 576.65897461 631.17045898 672.26586914 510.67583984 672.26586914zM258.77533203 376.70841797L258.77533203 573.88330078c-2.76301758 0-5.49834961-0.11311523-8.20441406-0.32668945C295.27516602 670.60394531 394.84109375 738.1891113300001 510.70668945 738.1891113300001c115.86717773 0 215.4346875-67.58516602 260.1365625-164.63329102-2.70606445 0.21436523-5.44139648 0.32748047-8.20362304 0.32748047l0-197.17567383c55.64083008 0 100.77855469 44.14579102 100.77855468 98.58665039 0 36.97365234-20.82032227 69.19013672-51.6074414 86.06408204C768.48681641 683.39071289 650.21574219 771.0399902300001 510.70668945 771.0399902300001c-139.50351563 0-257.7722168-87.64374023-301.09851562-209.67134765-30.79740234-16.87078125-51.61139648-49.09359375-51.61139649-86.07357422C157.99677734 420.85341797 203.1012793 376.70841797 258.77533203 376.70841797zM728.36650391 263.67149414000005C671.36196289 211.58707030999994 594.83357422 179.69411133000006 510.67583984 179.69411133000006c-84.00111328 0-160.40293945 31.77588867-217.37346679 83.68866211C191.34283203 212.01817383000002 124.40234375 120.59337890999996 124.40234375-3.602402340000026l775.1953125 0C899.59765625 120.82514647999994 831.40499023 212.35910156 728.36650391 263.67149414000005z"  horiz-adv-x="1024" />

    
    <glyph glyph-name="icon" unicode="&#58885;" d="M758.50500177-37.875L265.50933209-37.875c-96.7114638 0-175.38433208 78.67961252-175.38433209 175.38433208L90.125 630.49066791c0 96.70471875 78.67202453 175.38433208 175.38433208 175.38433209l492.99567051 0c96.69797369 0 175.36999823-78.67961252 175.36999823-175.38433208l1e-8-492.98217958C933.87584292 40.80461251999998 855.20297547-37.875 758.50500177-37.875zM265.50933209 721.59173557c-50.23471702 0-91.10106766-40.8655069-91.10106766-91.10106765l0-492.98217958c0-50.23471702 40.8655069-91.10106766 91.10106765-91.10106766l492.99567051 0c50.2212269 0 91.08757673 40.8655069 91.08757673 91.10106766L849.59257932 630.49066791c0 50.23471702-40.8655069 91.10106766-91.08757673 91.10106766L265.50933209 721.59173557zM501.21174905 418.55528687c-10.78234882 0-21.56469763 4.11547138-29.79564038 12.33966824L371.76875659 530.5212282699999c-16.46188467 16.45429587-16.46188467 43.13614114 0 59.59802581 16.43405988 16.46188467 43.12939609 16.45429587 59.59043701 0.00674506l99.64735208-99.62627316c16.46188467-16.45429587 16.46188467-43.13614114 0-59.59802581C522.78993763 422.67075742 511.99409787 418.55528687 501.21174905 418.55528687zM522.80342773 418.55528687c-10.78234882 0-21.56469763 4.11547138-29.79564038 12.33966824-16.46188467 16.45429587-16.46188467 43.14288621 0 59.59802582l99.61952811 99.63386196c16.43405988 16.46188467 43.12939609 16.45429587 59.59043701 0.00674505 16.46188467-16.45429587 16.46188467-43.14288621 0-59.59802581L552.59906812 430.90170017C544.38161631 422.67075742 533.58577655 418.55528687 522.80342773 418.55528687zM641.90251568 371.41412897L382.11181817 371.41412897c-23.2796879 0-42.14121076 18.86911084-42.14121075 42.14121075s18.86236496 42.14121076 42.14121076 42.14121076l259.79069751 0c23.2796879 0 42.14121076-18.86911084 42.14121075-42.14121076S665.18220358 371.41412897 641.90251568 371.41412897zM641.90251568 250.20207843000003L382.11181817 250.20207843000003c-23.2796879 0-42.14121076 18.86911084-42.14121075 42.14121076 0 23.27294285 18.86236496 42.14121076 42.14121076 42.14121075l259.79069751 0c23.2796879 0 42.14121076-18.86911084 42.14121075-42.14121075C684.04456936 269.07118927 665.18220358 250.20207843000003 641.90251568 250.20207843000003zM512.0075888 149.23770758c-23.2796879 0-42.14121076 18.86911084-42.14121075 42.14121075l0 218.7329491c0 23.27209991 18.86236496 42.14121076 42.14121076 42.14121076 23.2796879 0 42.14121076-18.86911084 42.14121075-42.14121076l0-218.7329491C554.14879873 168.10681840999996 535.28643378 149.23770758 512.0075888 149.23770758z"  horiz-adv-x="1024" />

    
    <glyph glyph-name="ddcx-copy-copy" unicode="&#58961;" d="M876.15310669 30.797515869999984l-89.40948487 89.40948486c20.26071167 30.59829712 32.19845581 67.19677734 32.19845581 106.64373779 0 106.92306518-86.67965698 193.60025024-193.59942626 193.60025025-106.92306518 0-193.60025024-86.67471313-193.60025025-193.60025025 0-106.91894531 86.67471313-193.60025024 193.60025025-193.60025024 39.4453125 0 76.04544067 11.94021607 106.64373779 32.19927979l89.40948487-89.40948487c11.12530518-11.12612915 29.33184815-11.12612915 40.45715331 0l14.30007935 14.30007935c11.12612915 11.12612915 11.12612915 29.33184815 0.00082398 40.45797729zM729.88937378 177.05960083000002c-11.45571899-23.99414063-30.76309204-43.30316162-54.7564087-54.75640869-15.14382935-7.22955323-31.89193726-11.61474609-49.78948974-11.6147461-64.15383911 0-116.16064453 52.00680542-116.16064453 116.16064454 0 64.15383911 52.00598145 116.16064453 116.16064453 116.16064453 64.15301513 0 116.16064453-52.00598145 116.16064453-116.16064453 0-17.89920044-4.38519287-34.64648438-11.61474609-49.78948975zM372.76065063 190.59585571000002h-94.68869018c-16.22735596 0-29.50241089 13.27587891-29.50241089 29.5024109 0 16.22735596 13.27587891 29.50241089 29.50241089 29.50241088h93.09512329c2.45050049 27.74816894 9.36117554 54.2109375 20.01599121 78.67144775h-113.11276245c-16.22735596 0-29.50241089 13.27587891-29.50241089 29.5024109 0 16.22735596 13.27587891 29.50241089 29.50241089 29.50241089h149.08996582c28.87536621 35.42514038 67.11849976 62.90634156 110.95394897 78.67144774h-260.04391479c-16.22735596 0-29.50241089 13.27587891-29.50241089 29.5024109s13.27587891 29.50241089 29.50241089 29.50241089h454.15338135c16.22735596 0 29.50241089-13.27587891 29.50241089-29.50241089s-13.27587891-29.50241089-29.50241089-29.5024109h-22.24072266c79.53250122-28.60592651 140.65081787-95.77798462 160.80935669-178.96481323v423.92340088c0 49.17068482-40.23056031 89.39959717-89.39959717 89.39959717h-552.49310303c-49.17068482 0-89.39959717-40.23056031-89.39959716-89.39959717v-638.31912231c0-49.17068482 40.23056031-89.39959717 89.39959716-89.39959717h324.04696656c-94.31954956 27.46224976-165.9460144 108.16397094-180.19088745 207.40841675zM278.07278442 662.62948609h454.15338135c16.22735596 0 29.50241089-13.27587891 29.50241089-29.50241089s-13.27587891-29.50241089-29.50241089-29.5024109h-454.15338135c-16.22735596 0-29.50241089 13.27587891-29.50241088 29.5024109s13.27505493 29.50241089 29.50241088 29.50241089z"  horiz-adv-x="1024" />

    
    <glyph glyph-name="dingwei" unicode="&#59066;" d="M847.602989 511.601166c0 176.560228-150.387126 319.868121-335.912539 319.868121-185.450712 0-335.859327-143.307893-335.859327-319.868121 0-64.521502 19.998473-124.366496 54.500265-174.685531l-0.463558 0 251.716952-383.010207c5.452175-10.592242 16.927531-17.876136 30.105668-17.876136 13.241582 0 24.610514 7.283894 30.159904 17.876136l251.758907 383.010207-0.700965 0C827.486836 387.235694 847.602989 447.079664 847.602989 511.601166zM511.69045 346.806913c-84.509742 0-153.092747 68.033489-153.092747 151.777799 0 83.851757 68.583005 151.777799 153.092747 151.777799 84.562954 0 153.156192-67.926042 153.156192-151.777799C664.846642 414.841426 596.253404 346.806913 511.69045 346.806913z"  horiz-adv-x="1024" />

    
    <glyph glyph-name="paichequhuo" unicode="&#59254;" d="M982.065935 531.062404l-137.458675 101.736079c-17.510816 12.955056-38.711673 19.949354-60.490699 19.949354l-62.362326 0-49.660027 0c-28.082592 0-50.845015-22.76447-50.845015-50.840922l0-75.512834L621.249193 400.041348l0-126.357849 0 0c0-26.055422-21.123087-47.177486-47.177486-47.177486L26.730805 226.50601300000005c-14.358009 0-25.993001-11.640108-25.993001-25.993001l0 0c0-14.353916 11.633968-25.987884 25.993001-25.987884l127.44767 0c-0.465604-3.831258-0.734734-7.723915-0.734734-11.678994 0-54.502311 44.182268-98.685603 98.685603-98.685603 54.502311 0 98.685603 44.183292 98.685603 98.685603 0 3.955078-0.270153 7.847735-0.730641 11.678994l354.963431 0c-0.460488-3.831258-0.730641-7.723915-0.730641-11.678994 0-54.502311 44.183292-98.685603 98.685603-98.685603 54.498218 0 98.68151 44.183292 98.68151 98.685603 0 3.955078-0.265036 7.847735-0.730641 11.678994l70.326718 0c28.705785 0 51.980885 23.275099 51.980885 51.980885l0 0L1023.261173 273.683499 1023.261173 400.041348l0 49.28345C1023.261173 481.558943 1007.975025 511.888715 982.065935 531.062404L982.065935 531.062404zM982.065935 531.062404M41.011043 248.572588l519.078209 0c21.494547 0 38.914288 17.425881 38.914288 38.912242L599.00354 664.9251810000001c0 21.494547-17.419741 38.914288-38.914288 38.914288L41.011043 703.839469c-21.4925 0-38.914288-17.419741-38.914288-38.914288l0-377.440351C2.096754 265.998469 19.522636 248.572588 41.011043 248.572588L41.011043 248.572588zM155.443281 535.2927520000001c0.039909 7.336082 6.010901 13.256932 13.346983 13.218046l117.079532-0.550539c7.336082-0.038886 13.31219 5.875824 13.346983 13.213953l0.320295 61.276598c0.050142 9.983375 11.998265 15.0733 19.235087 8.195659l126.620839-147.361209c4.758374-4.523013 4.719488-12.111852-0.083911-16.584724L317.164546 320.770933c-7.302313-6.797823-19.200294-1.585101-19.144012 8.393157l0.315178 61.276598c0.038886 7.341199-5.881964 13.320377-13.219069 13.353123l-117.003807 0.556679c-7.337105 0.032746-13.257955 6.010901-13.223163 13.346983L155.443281 535.2927520000001 155.443281 535.2927520000001zM155.443281 535.2927520000001"  horiz-adv-x="1024" />

    
    <glyph glyph-name="icon-luxian" unicode="&#58986;" d="M805.36238 365.89515469h-0.00095906c-5.89328438-0.29164219-10.74951187-0.82600031-16.42214531-1.93788563-109.95585-14.68764187-210.38919656-65.2319325-288.58098282-141.42827156V430.42292531h222.53072438c9.28650375 8.64086156 2.20362562 22.96203187-7.08575625 31.61056782L433.56549875 796.31501063c-9.29226 8.64949594-24.34925156 8.64949594-33.63575531-1e-8L144.35518344 464.7196725c-10.75047094-12.28255219-15.62972344-25.65588562-6.34034157-34.29674719h221.97238313v-422.11188843c0-25.66356 20.94451969-46.46897438 46.78939687-46.46897344h46.78939594c21.40117031 0 39.4359825 14.27704031 45.00500719 33.76047h0.31850344c54.91508719 146.55215719 173.73244969 211.21999313 297.84829968 231.38743969 5.664 0.55738219 6.703935 0.87876375 9.62131594 1.03705687 39.57316969 2.15853656 69.20076187 29.6343075 69.20076188 68.14259906 0.00095906 38.51116969-31.42445438 69.72552563-70.19752594 69.72552563z"  horiz-adv-x="1024" />

    
    <glyph glyph-name="gerenxinxixiugai" unicode="&#59109;" d="M116.751515 4.783838c1.422222 9.955556 2.585859 20.040404 4.39596 29.99596 11.119192 60.638384 40.727273 111.062626 85.850505 152.436364 52.492929 48.09697 114.812121 75.377778 185.40606 83.135353 87.919192 9.69697 168.856566-9.438384 240.743435-61.931313 57.923232-42.408081 96.323232-98.391919 110.674747-169.50303 3.361616-16.549495 3.749495-33.616162 5.559596-50.424243h-632.630303v16.290909zM446.577778 778.731313c9.69697-1.810101 19.652525-2.973737 29.090909-5.430303 64.129293-17.325253 106.925253-58.69899 131.490909-119.337374 32.711111-80.678788 12.929293-175.321212-48.226263-234.149495-40.339394-38.658586-88.694949-56.759596-144.420202-50.812121-56.371717 5.947475-100.20202 34.391919-132.525252 80.290909-61.414141 87.143434-48.226263 210.876768 29.737374 281.6 29.608081 26.892929 64.129293 42.79596 104.080808 46.804041 1.292929 0.129293 2.585859 0.646465 3.878787 1.034343h26.89293zM907.248485 327.49899c-73.826263 0-147.652525 0-221.478788-0.129293-1.163636 0-2.327273 0.129293-3.749495 0.258586v55.854545h225.228283v-55.983838zM907.248485 497.00202c-12.282828-0.129293-24.565657-0.258586-36.719192-0.258586H738.391919v56.371718h168.985859c-0.129293-18.747475-0.129293-37.365657-0.129293-56.113132zM907.248485 157.866667H738.262626v56.113131h168.985859v-56.113131z"  horiz-adv-x="1024" />

    
    <glyph glyph-name="caiwuchaxun" unicode="&#58985;" d="M988.22826667-90.11199999999997a50.176 50.176 0 0 0-70.8608 0l-212.51413334 212.51413333a51.06346667 51.06346667 0 0 0-12.83413333 22.528A417.3824 417.3824 0 0 0 11.6736 468.992c0 9.0112-0.54613333 7.85066667 0 16.65706667l101.23946667-65.1264 32.29013333-85.1968c49.69813333-106.63253333 158.5152-183.63733333 283.8528-183.63733334 162.13333333 0 301.8752 125.81546667 317.30346667 283.8528l91.61386666-51.2a416.08533333 416.08533333 0 0 0-84.992-178.31253333 49.152 49.152 0 0 0 22.7328-12.83413333l212.51413334-212.51413334a49.83466667 49.83466667 0 0 0 0-70.79253333zM362.35946667 652.62933333l66.83306666-167.04853333 66.83306667 167.04853333h66.83306667l-66.90133334-167.04853333h50.03946667v-50.03946667H462.50666667v-33.3824h83.49013333v-50.03946666H462.50666667v-66.83306667h-66.7648v66.7648H312.25173333v50.03946667h83.49013334v33.3824H312.25173333v50.176h50.03946667l-66.7648 167.04853333 66.83306667-0.06826667z m383.1808-136.32853333l-34.33813334 86.2208c-50.176 106.63253333-159.9488 183.63733333-286.5152 183.63733333-163.6352 0-304.67413333-125.7472-320.3072-283.8528l-92.43306666 51.2C51.4048 743.4922666699999 221.184 886.3744 424.68693333 886.3744c232.78933333 0 421.34186667-186.84586667 421.34186667-417.3824 0-9.0112 0.6144-7.85066667 0-16.65706667l-84.1728 53.6576-16.31573333 10.30826667z"  horiz-adv-x="1024" />

    
    <glyph glyph-name="shouhuodizhi" unicode="&#58894;" d="M511.99472656 605.8842773399999c-60.85722656 0-110.19199219-49.66875-110.19199218-110.94169922S451.1375 384 511.99472656 384c60.86865234 0 110.20429687 49.66875 110.20429688 110.94257813s-49.33564453 110.94169922-110.20429688 110.94169921z m0 221.88515625c-182.56728516 0-330.59003906-149.03085938-330.59003906-332.82685546 0-183.80917969 330.59003906-554.71201172 330.59003906-554.71201172s330.60146484 370.90107422 330.60146485 554.71201171c0 183.796875-148.021875 332.82685547-330.60146485 332.82685547z m0-554.71201172c-121.71181641 0-220.39804688 99.34892578-220.39804687 221.88515625 0 122.52304687 98.68623047 221.88427734 220.39804687 221.88427735 121.72412109 0 220.40947266-99.36123047 220.40947266-221.88427735 0-122.53623047-98.68535156-221.88515625-220.40947266-221.88515625z"  horiz-adv-x="1024" />

    
    <glyph glyph-name="fenpei" unicode="&#59125;" d="M943.58450599 211.46545801000002h-77.91555799V359.47851399h-334.825788V471.107917h108.25760999c7.894807 0 14.42759399 6.54608999 14.42759401 14.472619l-1.178849 264.187985c0 7.934716-6.532787 14.46340999-14.427594 14.46341H373.85878c-7.894807 0-14.423501-6.52869399-14.423501-14.46341l-1.182942-264.187985c0-7.925507 6.532787-14.47262 14.427594-14.472619h121.69464299v-111.62940301H158.0302v-148.013056H79.555917c-8.046257 0-14.6957-6.009877-14.6957-13.29376999v-180.208315c0-7.286963 6.64842-13.293771 14.6957-13.29377101h193.546088c8.042163 0 14.6957 6.005784 14.6957 13.29377101V198.17168800000002c0 7.28286999-6.653537 13.293771-14.6957 13.29377001h-78.47428299V326.247668H494.373551v-114.78221001h-78.469166c-8.03806999 0-14.690584-6.009877-14.690584-13.29376999v-180.208315c0-7.286963 6.653537-13.293771 14.690584-13.29377101h193.269795c8.042163 0 14.6957 6.005784 14.6957 13.29377101V198.17168800000002c0 7.28286999-6.653537 13.293771-14.6957 13.29377001h-78.192873V326.247668H829.066309v-114.78221001h-77.920674c-8.03806999 0-14.6957-6.009877-14.6957-13.29376999v-180.208315c0-7.286963 6.65763001-13.293771 14.6957-13.29377101H943.58450599c8.042163 0 14.6957 6.005784 14.6957 13.29377101V198.17168800000002c-0.001023 7.28389399-6.653537 13.293771-14.6957 13.29377001z"  horiz-adv-x="1024" />

    
    <glyph glyph-name="shenhe" unicode="&#59133;" d="M134.18511875 17.146646250000003v-13.15747875c0-21.19395094 14.313495-38.35671375 31.99622625-38.35671469h690.83337469c17.67409688 0 31.99622625 17.16276375 31.99622718 38.35671469v13.15747875h-754.82582812z m754.8114375 203.87137594c0 21.63812906-14.33076375 39.15681188-32.00006344 39.15681094H679.44391344c-71.35258312 45.30912-64.60355906 103.22793187-64.60355906 103.22793187-2.76100781 31.35442125 59.67154312 108.17241938 59.67154218 108.17241937 28.92055219 34.96253531 46.21762406 79.27776938 46.217625 127.48124719 0 109.42533-89.10726562 198.75900094-201.13531031 204.15630188h-15.94726781c-112.04051625-5.376195-201.1391475-94.73097281-201.1391475-204.15630188-0.07962562-46.33082813 16.2283575-91.30321687 46.22529937-127.48124719 0 0 62.42871375-76.81799719 59.67154219-108.17241937 0 0 6.75286125-57.91881094-64.60739625-103.22793188H166.18038594c-17.68273125 0-31.99622625-17.51868187-31.99622719-39.15681093v-143.0428575l754.8123975 1.28648812V221.01802219z m-389.07284813 39.15681094l11.67528376 0.02974031 11.67816187-0.02974031h-23.35344562z"  horiz-adv-x="1024" />

    
    <glyph glyph-name="kucunchaxun" unicode="&#58917;" d="M896.45550833 627.4385493699999v0.81758907h-0.23147906c-2.04340219 6.15871406-10.18964438 9.86580187-17.64829125 13.69033875L482.37461896 840.04133531a22.45233938 22.45233938 0 0 1-20.2732425 0L65.90025739 641.94761813c-14.74168875-9.67651312-12.43601906-31.10373094-12.43601906-33.40940063V185.84584687999995c0-7.83836344 4.14495938-15.20920781 10.83048937-19.35416719 0 0 387.67744031-234.26148281 394.36182844-237.25360782 13.58885344-6.68438906 22.11253219-4.83141469 28.56430125-1.60553062l128.99661563 74.62751625a22.98827625 22.98827625 0 0 1 8.29105875 31.55642719c-6.31379438 10.98898875-20.32683563 14.80098375-31.33749 8.52367875l-89.13544594-51.82852875-9.19531031-4.83027469V383.70580500000005l350.59059937 199.02647625 1.10836406 0.67163156v-106.05280968c0-12.09963281 9.86694187-21.87877312 22.03955344-21.87877313h5.8382925c12.17375156 0 22.03841344 9.79396313 22.03841344 21.87877312V623.44068656c0.07297875 0.24744281 0.1470975 0.48120281 0.19042875 0.70013907a10.20674906 10.20674906 0 0 1-0.19042875 3.29772375zM332.98731177 359.32979344a22.03727344 22.03727344 0 0 0-30.63621094-7.83836344l-132.22249969 79.22631187c-10.619535 6.42896344-14.02216406 20.244735-7.60460437 30.86997188a22.17296813 22.17296813 0 0 0 30.63621187 7.60460344l132.22363969-79.22517188a22.17182813 22.17182813 0 0 0 7.60346344-30.63735187zM1010.9168277-9.154260000000022l-96.05473406 96.05473406a210.38149875 210.38149875 0 0 1 51.47959969 138.17824125c0 116.63357438-94.55182969 211.18540406-211.18426406 211.185405-116.63471438 0-211.20136875-94.55068969-211.20136875-211.185405s94.55068969-211.18540406 211.18540406-211.18540406c42.99925125 0 82.99155469 12.84424313 116.34280031 34.913445l98.69564906-98.69793c11.25923813-11.15547187 29.41723969-11.10985969 40.62060375 0.10262625a28.67833125 28.67833125 0 0 1 0.11631 40.6342875z m-255.77650312 68.96482875c-91.28147344 0-165.28183031 74.00035594-165.28183031 165.26814656 0 91.28147344 74.00035594 165.28183031 165.28183031 165.28183032s165.28183031-74.00035594 165.28183031-165.28183032c0-91.26664969-74.00035594-165.26814656-165.28183031-165.26814656z"  horiz-adv-x="1030" />

    
    <glyph glyph-name="dingdan4" unicode="&#59028;" d="M469.098911 823.290001C502.90587799 838.839139 551.670511 838.601732 576.995293 807.506527c13.898545-16.491603 12.248975-39.22435001 15.07637-59.366086 33.56956-1.76622601 67.258847 2.00260999 100.70970301-2.591012 33.45188-6.125511 58.18826-42.52246601 49.00101799-75.855641-6.124488-30.861892-37.4571-51.356668-68.081585-49.23637799-110.252033 0.23536-220.6197-1.17680199-330.87173299 0.707104-49.23535399 0.824785-77.741595 66.668399-43.93565202 102.83101699 34.630728 38.399565 91.758844 18.61086999 136.87232101 24.264637 1.05912199 27.799136 5.30072601 61.133336 33.33419899 75.03188l-0.00102299-0.002047zM154.600077 573.222619h694.95998499c-0.352017-157.485801 0.590448-314.85289799-0.35201699-472.338698-0.707105-90.934059-85.869716-166.789701-175.507246-163.726945-118.496811 0.23536-236.99362199-0.706081-355.48941 0.589424-85.280292 2.591011-162.432463 76.79912999-163.257248 163.138544-0.825808 157.485801-0.118704 314.85289799-0.354064 472.337675z m459.969996-200.713324c-55.597249-53.35927801-108.367103-109.780289-165.72955501-161.254638-36.04391401 19.553335-52.88753401 62.66420201-84.689844 87.98796099-22.38073001 7.89071399-48.646953-6.242168-38.87130899-32.51043799 25.443485-31.21288599 53.476959-60.190871 77.506234-92.34622201 17.432021-29.09464199 63.252603-29.683043 82.217537-2.12131299 58.423621 61.249993 123.67883399 115.551736 182.10245399 176.566368-2.00260999 8.128121-6.006807 24.618701-8.12812099 32.863478-14.72333001-1.647523-33.45188 4.241604-44.407396-9.187243v0.002047"  horiz-adv-x="1024" />

    
    <glyph glyph-name="shangdian" unicode="&#58999;" d="M236.31709573 446.67325396c-70.70128638 0-131.15349289 46.29457754-143.73529431 108.76930143l-0.18612103 1.83639715c-0.23575396 2.77941138-1.97288608 27.75689318 9.93887815 44.07352928l82.72472469 111.6727943c21.00689318 28.77435682 69.07582754 51.48115823 109.40211393 51.48115741h435.59834573c40.32628638 0 88.39522073-22.59512897 109.43933779-51.4315253l82.6006432-110.9903497c11.52711392-15.79549603 11.44025711-40.02849289 11.390625-42.74586392l-0.23575315-2.18382358c-12.66865823-62.87178323-73.10845568-110.38235284-143.73529431-110.38235285-63.09512896 0-114.62591932 44.75597388-135.6824446 94.38832755h-6.84926505c-20.89522073-49.63235285-72.3515625-95.14522073-135.67003638-95.14522073s-114.77481647 45.51286789-135.67003721 95.14522073h-3.6355696c-21.08134177-49.61994461-72.59972388-94.48759177-135.69485285-94.48759177z m553.18979745 26.39200315M788.98575396 417.79963211c-58.4296875 0-105.22058862 29.81663608-134.61534969 66.8671875l-11.86213212-0.01240823c-29.7421875-35.11489004-75.96231646-71.43336392-131.25275711-71.43336392-55.09191138 0-101.20036789 36.0703125-130.95496362 71.06112186l-9.50459574-0.01240824c-29.40716932-36.703125-76.65716932-66.18474289-134.86351107-66.1847429-25.07674604 0-46.86534888 5.43474289-71.68152529 15.16268436v-345.77619543c0-47.38648892 29.77941138-79.83364004 72.89751818-79.83363922h108.67003638c30.63556961 0 68.54227927 17.81801504 68.54228009 50.25275711L413.78998182 227.65808861999994c5.21139715 53.21829034 50.63740823 94.99632358 104.97242641 94.99632276 58.36764716 0 108.26056961-47.90762897 108.26056962-104.67463211 0-1.43933862 0.43428323-4.28079034-0.01240824-8.05284888l-0.34742643-141.21645255c0-33.04273892 23.10385996-61.09742642 53.21829035-61.09742642h107.59053324c46.90257358 0 84.00275711 36.15716932 84.00275711 79.83364004V439.40211392c-24.80376818-13.72334573-52.88327216-21.60248182-82.48896992-21.60248181z"  horiz-adv-x="1024" />

    
    <glyph glyph-name="purchasereceipt" unicode="&#58922;" d="M761.99999961-66H262.00000039a100.0000002 100.0000002 0 0 0-100.0000002 100.0000002V683.99999971a100.0000002 100.0000002 0 0 0 100.0000002 100.00000019h99.99999932v-150.00000029h300.00000058V783.9999999h99.99999932a100.0000002 100.0000002 0 0 0 100.0000002-100.00000019v-649.99999951a100.0000002 100.0000002 0 0 0-100.0000002-100.0000002z m-9.29999971 541.2999999a27.9 27.9 0 0 1-40.24999951 0l-261.70000049-269.4999999-140.90000009 145.0000002a27.9 27.9 0 0 1-40.24999952-1e-8 29.99999971 29.99999971 0 0 1 0-41.45000009l161.04999991-165.85000049a27.9 27.9 0 0 1 40.24999951 0L752.6999999 434.0000001a29.99999971 29.99999971 0 0 1 0 41.2999998zM562.0000001 683.99999971H461.9999999a50.0000001 50.0000001 0 0 0-50.0000001 50.0000001V783.9999999a50.0000001 50.0000001 0 0 0 50.0000001 50.0000001h100.0000002a50.0000001 50.0000001 0 0 0 50.0000001-50.0000001v-50.0000001a50.0000001 50.0000001 0 0 0-50.0000001-50.00000009z"  horiz-adv-x="1024" />

    
    <glyph glyph-name="ccgl-diaobochuku-2" unicode="&#59037;" d="M793.25 8.999707029999968v421.875h-562.5v-421.875h-93.75029297v515.62529297h749.99970703v-515.62529297h-93.75029297zM324.49941406 759.00029297h375.00029297c103.55273438 0 187.50058594-83.94609375 187.50058594-187.50058594h-749.99970703c0 103.55273438 83.94609375 187.50058594 187.50058593 187.50058594zM380.75029297 364.12529297000003c8.37333984 12.01201172 22.0921875 19.79472656 37.63300781 19.87558594l0.75761719-0.00087891c0.25400391 0.00527344 0.55283203 0.00791015 0.85253906 0.00791017 24.93017578 0 45.140625-20.21044922 45.140625-45.14062501 0-0.31552734-0.00351562-0.63105469-0.00966797-0.94570313l0.00087891-282.04628906c0-25.88818359-20.98652345-46.87470703-46.87470703-46.87470703s-46.87470703 20.98652345-46.87470703 46.87470703v170.10966797l-16.07783203-16.07783203c-8.32060547-8.8875-20.12519531-14.42548828-33.22177735-14.42548829-25.11123047 0-45.46845703 20.35722656-45.46845703 45.46845704 0 13.09746094 5.53798828 24.90117188 14.4 33.19892579zM605.75029297 384c25.88818359 0 46.87470703-20.98652345 46.87470703-46.87470703v-170.10966797l16.07783203 16.07783203c8.32060547 8.8875 20.12519531 14.42548828 33.22177734 14.42548828 25.11123047 0 45.46845703-20.35722656 45.46845704-45.46845703 0-13.09746094-5.53798828-24.90117188-14.4-33.19892578l-89.74423829-89.97626953c-8.37333984-12.01201172-22.0921875-19.79472656-37.63300781-19.87558594l-0.71015625 0.00087891c-0.253125-0.00527344-0.55195313-0.00791015-0.85078125-0.00791016-24.95654297 0-45.18720703 20.23066406-45.18720703 45.18720703 0 0.28300781 0.00263671 0.56513673 0.00703125 0.84726563l-0.00087891 282.09814453c0 25.88818359 20.98652345 46.87470703 46.87470704 46.87470703z"  horiz-adv-x="1024" />

    
    <glyph glyph-name="kucunchaxun1" unicode="&#58914;" d="M956.60266667 524.62506667l-421.8752 303.7504c-11.25013333 5.62453333-28.1248 5.62453333-39.37493334 0l-427.49973333-303.7504c-11.25013333-11.25013333-5.62453333-33.7504 11.25013333-33.7504h84.37546667v-540c0-11.25013333 11.25013333-16.87466667 16.87466667-16.87466667h590.62506666l-123.7504 118.1248c-101.25013333-61.8752-230.62506667-56.2496-320.62506666 28.1248-95.62453333 101.25013333-101.25013333 264.37546667 0 365.62453333 95.62453333 101.25013333 258.74986667 106.87466667 365.62453333 11.25013334 84.37546667-78.74986667 101.25013333-208.1248 50.62506667-303.7504l118.1248-112.50026667v450h84.37546666c16.87466667 0 22.50026667 22.50026667 11.25013334 33.7504zM349.10293333 265.87519999999995c0 0 0 0 0 0 0-90.09066667 73.0336-163.12533333 163.12533334-163.12533333 90.09173333 0 163.12533333 73.0336 163.12533333 163.12533333 0 0 0 0 0 0 0 90.09066667-73.0336 163.12533333-163.12533333 163.12533333-90.09066667 0-163.12533333-73.0336-163.12533334-163.12533333z"  horiz-adv-x="1024" />

    
    <glyph glyph-name="siji" unicode="&#58909;" d="M512.28125 434.90625c100.03125 0 181.40625 82.3125 181.40625 183.46875 0.09375 101.25-81.375 183.5625-181.40625 183.5625S330.875 719.625 330.875 618.46875c0-101.25 81.375-183.5625 181.40625-183.5625z m-21-267.75l167.25 224.25c-36.375 8.90625-86.53125 18-145.5 18-4.03125 0-106.59375 7.6875-213.28125-38.4375 0 0-13.5-1.3125-40.03125-40.03125-40.59375-62.34375-102.84375-153.28125-121.21875-183.5625-12.84375-19.875-45.28125-59.8125-24.1875-101.8125 23.15625-41.8125 43.03125-73.5 50.71875-78.84375h100.3125c-1.96875 71.8125 68.53125 189.75 225.9375 200.4375z m395.4375-20.71875c-30.84375 49.96875-99.46875 151.5-105 160.6875-7.21875 11.90625-29.8125 57.75-72 70.03125-4.59375 1.3125-10.40625 3.09375-17.34375 5.15625L532.25 167.34375c153-8.71875 228.65625-121.40625 228.65625-200.4375l91.78125-0.09375s9.75-0.9375 57.65625 81.09375c17.8125 43.125-1.6875 61.78125-23.625 98.53125zM512.1875 114.09375c-105.5625 0-191.15625-64.6875-191.15625-147.28125h382.40625c0 82.59375-85.59375 147.28125-191.25 147.28125z"  horiz-adv-x="1024" />

    
    <glyph glyph-name="customercarlist" unicode="&#58913;" d="M644.2469215 126.78949109999996c0 67.33348078-53.86678462 121.19879249-121.19879249 121.19879249s-121.19879249-53.86531172-121.19879249-121.19879249 53.86678462-121.19731962 121.19879249-121.19731959c67.33200788-1.34770064 121.19879249 53.86531172 121.19879249 121.19731959z m676.01695295 316.4636774H885.29680586V346.29383993h434.96706859v96.95932857z m0 193.91718426H885.29680586v-96.95932858h434.96706859v96.95932858z m0-389.18206917H885.29680586v-96.95785566h434.96706859v96.95785566zM523.04812901 296.46721146000004c92.91917245 0 169.67772034-64.63807949 169.67772033-145.43678353h96.95932858v292.22274057H547.28759292l96.95932858 96.95785568h145.43825642v96.95932858H595.76504787L450.33121015 443.2531685 209.2769071 394.77276777V151.03190082000003h145.43825643c0 79.45100339 75.41232014 145.43678352 168.33149258 145.43678351z"  horiz-adv-x="1436" />

    
    <glyph glyph-name="zhanghuguanli" unicode="&#58889;" d="M630.704 22.331999999999994l-4.572 1.936-6.372 3.712c-28.799 12.222-49.153 40.883-49.153 73.614v32.398c0 22.816 9.369 43.346 24.398 57.855 0 0 10.24 10.79 14.158 13.804 5.8 4.063 21.712 7.432 21.712 7.432-8.657 31.32 2.819 65.653 29.148 84.93-43.306 27.08-94.338 42.843-148.941 42.843H343.95c-155.318 0-281.665-126.72-281.665-282.256v-16.818c0-81.388 124.364-81.388 281.665-81.388h167.138c45.056 0 88.362 0 126.868 2.131-9.89 17.689-12.747 39.278-7.253 59.805z m-211.495 340.11c122.962 0 222.972 100.338 222.972 223.672S542.169 809.792 419.209 809.792c-123.006 0-223.191-100.345-223.191-223.678s100.189-223.671 223.191-223.671z m519.049-201.829c-22.817 1.605-40.31 20.203-40.31 42.505 0 6.905 1.582 13.275 4.749 19.127 5.843 12.217 1.582 27.63-10.597 34.535l-14.335 8.503-13.804 7.952c-12.177 6.905-27.035 3.192-34.988-7.952-7.433-11.69-20.708-19.122-35.572-19.122-14.813 0-28.088 7.433-35.52 19.122-7.953 11.145-22.811 14.857-35.034 7.952l-14.816-7.952-13.804-7.983c-12.222-6.899-16.439-22.307-10.597-34.53 3.169-5.85 4.749-12.222 4.749-19.12 0-22.839-17.493-40.907-40.311-42.512v-0.528c-13.804-1.055-24.398-12.222-24.398-26.554v-32.42c0-13.803 11.122-25.493 24.398-26.554l0.528-0.528c22.291-1.076 39.784-19.649 39.784-42.511 0-6.9-1.582-13.277-4.749-19.122-5.843-12.222-1.627-27.63 10.597-34.535l28.094-16.455c12.222-6.905 27.607-3.187 35.039 7.976 7.433 11.672 20.663 19.127 35.52 19.127 14.858 0 28.133-7.981 35.559-19.127 7.959-11.161 22.816-15.43 34.998-7.976l28.134 16.455c11.649 6.905 16.439 21.792 10.589 34.009 0 0 0 0.528-0.523 0.528-0.528 0.534-0.528 1.078-1.055 1.605l-0.528 0.528c-2.114 5.295-3.208 10.619-3.208 16.463 0 22.839 17.541 40.907 39.784 42.512l0.527 0.528c13.804 1.06 24.444 12.222 24.444 26.554v33.474c1.049 13.803-10.112 24.97-23.349 26.024z m-83.304-65.351c-2.641-7.433-6.905-14.33-11.649-20.175-9.587-11.167-23.344-19.653-38.736-22.313-3.731-0.528-7.953-1.053-11.689-1.053-3.697 0-7.959 0.528-11.65 1.053-15.385 2.66-29.195 11.145-38.729 22.313-5.323 5.844-9.014 12.744-11.695 20.175-2.636 6.928-4.223 14.353-4.223 22.313 0 7.977 1.587 15.402 3.697 22.337 2.68 7.433 6.372 14.33 11.69 20.175 9.539 11.693 23.344 19.647 39.255 22.313 3.697 0.527 7.432 1.053 11.65 1.053 4.268 0 7.958-0.527 11.693-1.053 15.386-2.665 29.148-11.145 39.256-22.313 4.749-5.844 9.014-12.744 11.649-20.175 2.683-6.935 3.736-14.353 3.736-22.337 0.007-7.959-1.62-15.385-4.255-22.313z m0 0z"  horiz-adv-x="1040" />

    
    <glyph glyph-name="xitongcaozuoyichangchuli" unicode="&#59468;" d="M871.15441165-37.875c-137.05147019 0-248.16176504 111.11029403-248.16176422 248.16176504s111.11029403 248.16176504 248.16176422 248.16176423 248.16176504-111.11029403 248.16176505-248.16176423-111.11029403-248.16176504-248.16176505-248.16176504z m33.08823551 380.51470624a33.0882355 33.0882355 0 1 1-66.17647102 0v-165.4411767a33.0882355 33.0882355 0 1 1 66.17647102 0V342.63970624z m-33.08823551-231.61764771a33.0882355 33.0882355 0 1 1-0.01654377-66.15992642A33.0882355 33.0882355 0 0 1 871.15441165 111.02205852999998zM672.62500027 474.99264743H308.65441138a33.0882355 33.0882355 0 1 1 0-66.17647101h298.24080935a329.74080908 329.74080908 0 0 1-51.43566165-99.26470569H308.65441138a33.0882355 33.0882355 0 1 1 0-66.176471h233.27205935c-1.07536762-10.88602954-1.65441165-21.92095625-1.65441165-33.08823469a329.62500027 329.62500027 0 0 1 94.78124973-231.61764771H143.2132355a33.0882355 33.0882355 0 0 0-33.0882355 33.08823551V772.7867645a33.0882355 33.0882355 0 0 0 33.0882355 33.0882355h678.30882331a33.0882355 33.0882355 0 0 0 33.0882355-33.0882355v-232.44485312A328.8805145 328.8805145 0 0 1 673.15441137 474.99264743H672.62500027z m33.08823469 132.35294119a33.0882355 33.0882355 0 0 1-33.08823469 33.08823469H308.65441138a33.0882355 33.0882355 0 1 1 0-66.17647019h363.97058889a33.0882355 33.0882355 0 0 1 33.08823469 33.0882355z"  horiz-adv-x="1224" />

    
    <glyph glyph-name="zhanghu" unicode="&#58955;" d="M570.06836805 467.25374999c-28.56-11.8959375-54.7396875-27.7490625-78.5428125-47.57624999-23.8040625-19.820625-44.3840625-42.4753125-61.74374999-67.9640625-17.3578125-25.4859375-30.8025-53.38125001-40.31906251-83.68125-9.52124999-30.3009375-14.281875-62.1646875-14.281875-95.57625 0-29.4534375 3.7809375-57.628125 11.33812501-84.534375 7.5628125-26.8996875 18.0646875-52.2525 31.50374999-76.033125H395.33993055c-16.2375 0-35.1384375 0.55874999-56.6990625 1.695-21.556875 1.1315625-43.8178125 2.694375-66.778125 4.6734375a2697.661875 2697.661875 0 0 0-68.4628125 6.79125c-22.6828125 2.551875-43.26375001 5.240625-61.74375 8.0775-18.4846875 2.8265625-34.1625 5.65875001-47.04375 8.4946875-12.88125001 2.82375001-20.998125 5.6596875-24.358125 8.491875-6.16125001 4.535625-10.7765625 18.5465625-13.861875 42.0525-3.0759375 23.5059375-1.820625 53.6690625 3.78187501 90.47625 2.233125 14.1628125 6.8615625 25.779375 13.85624999 34.8375 7.0040625 9.06375001 15.5409375 16.84874999 25.625625 23.35875 10.0753125 6.515625 21.28125001 11.7534375 33.6046875 15.721875a1204.685625 1204.685625 0 0 0 37.801875 11.4684375c12.8765625 3.684375 25.336875 7.6471875 37.3725 11.8996875 12.043125 4.246875 23.101875 9.48 33.1828125 15.71156249 11.76 7.366875 20.865 14.5846875 27.30093751 21.66375001 6.440625 7.078125 11.068125 14.015625 13.86562499 20.81624999 2.7975 6.7903125 4.198125 13.8740625 4.198125 21.23625001 0 7.36875001-0.279375 15.575625-0.84374999 24.6375-1.1203125 13.0275-5.596875 23.3596875-13.43906251 31.0078125-7.84124999 7.6425-16.5159375 15.4359375-26.0371875 23.3625-4.48125001 3.9646875-8.5415625 9.4903125-12.181875 16.5740625a212.7290625 212.7290625 0 0 0-9.6628125 21.6590625 1500.260625 1500.260625 0 0 0-8.3953125 26.3371875c-3.9234375 1.1278125-7.84124999 3.11624999-11.7646875 5.9475-3.36 2.8265625-6.999375 6.7903125-10.9171875 11.8903125-3.9234375 5.1-7.27874999 12.463125-10.08 22.095-2.7975 9.62625001-3.9234375 18.4003125-3.36 26.32781249 0.5625 7.93125001 2.2378125 15.015 5.04 21.24187501 2.2434375 6.2315625 5.8771875 12.18374999 10.921875 17.8425 0 21.5221875 1.1165625 43.0434375 3.3553125 64.56562499 2.2425 18.125625 6.16125001 37.6640625 11.7646875 58.62187501 5.59875001 20.9578125 14.2828125 39.64875001 26.0371875 56.07 11.203125 15.8625 23.2453125 28.7484375 36.12187501 38.65875 12.88125001 9.9103125 26.3221875 17.69624999 40.3246875 23.35875 13.99874999 5.668125 27.855 9.489375 41.57906249 11.47312499C369.16586805 863.01 382.46430556 864 395.34086805 864c16.2459375 0 32.3446875-1.84125001 48.30375-5.521875 15.961875-3.6825 30.9440625-8.63625001 44.94187501-14.86875 14.0034375-6.230625 26.4590625-13.3096875 37.38562499-21.2409375 10.9134375-7.9275 19.4596875-15.855 25.6171875-23.784375 14.56124999-18.12375001 25.2-38.090625 31.9190625-59.893125 6.7209375-21.80625001 11.48624999-42.6215625 14.27812501-62.446875 2.8059375-22.65 4.2028125-45.590625 4.20281249-68.8125 3.9225-2.8321875 6.9984375-6.511875 9.23625-11.04375 2.244375-3.9675 4.0659375-9.0628125 5.4628125-15.2896875 1.404375-6.2315625 1.546875-13.8796875 0.4246875-22.9425-1.12125001-12.463125-3.5015625-22.231875-7.1409375-29.3109375-3.643125-7.08-7.704375-12.6009375-12.18562499-16.56375-5.04-4.528125-10.359375-7.648125-15.95718751-9.346875a256.8721875 256.8721875 0 0 1-3.35625-11.038125l-4.20656249-11.9053125c-1.1175-3.9590625-2.521875-8.2059375-4.19812501-12.7415625v0.00468751z m120.1171875-27.18093749c36.406875 0 70.70625001-7.0790625 102.905625-21.238125 32.203125-14.1628125 60.21-33.421875 84.00375-57.77343751 23.8040625-24.354375 42.7059375-52.81875001 56.69906251-85.38187499 14.0025-32.56875001 21.001875-67.254375 21.00187499-104.071875 0-36.815625-6.9946875-71.5059375-21.00187499-104.0709375-13.9978125-32.56875001-32.895-61.021875-56.69906251-85.37625-23.79375001-24.358125-51.800625-43.4784375-84.00375-57.34875-32.199375-13.87875001-66.49875001-20.8115625-102.905625-20.8115625-36.9553125 0-71.5378125 6.9375-103.7428125 20.8115625-32.19375001 13.875-60.1996875 32.990625-84 57.34875-23.7984375 24.3534375-42.699375 52.81125001-56.6971875 85.37625-14.004375 32.565-21.0075 67.254375-21.0075 104.071875 0 36.8165625 7.003125 71.5021875 21.0075 104.071875 13.9978125 32.5678125 32.89874999 61.0265625 56.6971875 85.38093749 23.8003125 24.3525 51.80625001 43.6059375 84 57.77343751 32.205 14.154375 66.7828125 21.238125 103.74375001 21.238125z m154.569375-215.79c3.3646875 11.3184375 1.8178125 21.6590625-4.62 31.0115625-6.440625 9.34125001-14.9775 15.9946875-25.62 19.963125-10.63875001 3.9590625-21.28125001 4.246875-31.9246875 0.8484375-10.6378125-3.40125001-18.4753125-12.18-23.514375-26.33718751a1844.5575 1844.5575 0 0 0-7.9846875-26.76937499 1010.4778125 1010.4778125 0 0 1-7.55718749-25.906875c-2.518125-9.0628125-5.59875001-18.830625-9.23812501-29.315625-3.6384375-10.47375001-8.2621875-22.5103125-13.865625-36.10125-5.593125-14.7215625-13.5815625-21.66375001-23.94093749-20.810625-10.359375 0.8465625-18.3375 6.931875-23.9353125 18.2625-6.1621875 11.3315625-11.908125 23.50124999-17.22187501 36.52874999-5.325 13.03125001-10.501875 25.7775-15.541875 38.23125001a2087.150625 2087.150625 0 0 0-13.44374999 33.9853125c-3.91875001 10.194375-7.27874999 18.410625-10.0846875 24.646875-4.471875 9.054375-11.8921875 14.14874999-22.25156251 15.2859375-10.359375 1.1315625-20.44874999-0.4265625-30.245625-4.6734375-9.795-4.2440625-17.915625-10.905-24.3571875-19.9640625-6.440625-9.0628125-7.425-18.975-2.9428125-29.73375a4699.9828125 4699.9828125 0 0 1 13.4390625-38.23125 2133.4340625 2133.4340625 0 0 1 15.96281251-43.333125 2172.255 2172.255 0 0 0 15.9628125-43.3265625c5.0390625-14.1590625 9.511875-26.3371875 13.43437499-36.5278125 8.4046875-21.52124999 21.144375-37.66875001 38.2246875-48.4275 17.083125-10.7625 34.9996875-16.4221875 53.7628125-16.98937501 18.7546875-0.5690625 36.680625 3.6834375 53.7646875 12.7425 17.0803125 9.058125 29.5396875 22.6575 37.3771875 40.78031251a2939.77875001 2939.77875001 0 0 1 18.9 46.3003125 4132.4625 4132.4625 0 0 1 18.489375 47.1496875c5.8734375 15.294375 11.3390625 30.020625 16.37437501 44.17968749 5.03625001 14.1628125 9.238125 26.3325 12.59812499 36.53156251z"  horiz-adv-x="1024" />

    
    <glyph glyph-name="dianhua" unicode="&#58904;" d="M388.18437591 629.09124756s38.93280029-53.51715088 4.57305909-88.12408448c-22.74169922-22.86529541-53.64074708-77.24761963-37.69683838-100.4837036C371.1281015 417.24737549 568.51121918 227.03283691000001 568.51121918 227.03283691000001s22.61810302-19.77539063 37.69683838-12.60681152c15.07873536 7.16857911 87.87689209 50.3036499 87.87689209 50.3036499s30.03387451 10.1348877 62.78686523-12.60681152c33.0001831-22.98889161 134.71984864-90.34881592 134.71984863-90.34881592s28.92150879-36.46087646 8.6517334-68.59588623-83.79821778-95.78704834-83.79821778-95.78704834-25.21362305-17.05627442-82.31506348-3.58428955c-57.10144043 13.59558106-190.58532715 45.35980224-373.63128661 228.28216553C191.4192392 391.16857911 117.01433198 618.70916748 117.01433198 618.70916748S111.57609955 658.38354492 135.80095307 693.73205567C159.90221039 728.95697021 231.21721284 819.30578614 284.85795989 759.60882568c56.1126709-62.41607666 103.32641602-130.51757813 103.32641602-130.51757812z"  horiz-adv-x="1024" />

    
    <glyph glyph-name="add" unicode="&#58882;" d="M872.1875 504.1875H632.09375001V744h-240.00000002v-239.8125H152V264h240.09375001v-240.09375001h239.99999998V264h240.09375001z"  horiz-adv-x="1024" />

    
    <glyph glyph-name="tianjia" unicode="&#58930;" d="M810.32086179 682.32003781c-164.78499381 164.74049917-431.87053052 164.74049917-596.60691065 0-164.78499381-164.7396752-164.78499381-431.87053052 0-596.60608667 164.73555534-164.78499381 431.82109204-164.78499381 596.60691065 0 164.73802725 164.73555534 164.73802725 431.86641065 0 596.60608667zM558.88012686 196.48659934c0-25.85054883-20.98498042-46.83964912-46.88579169-46.83964994-25.90410718 0-46.88908758 20.9891003-46.88908758 46.83964994V337.15386208999996H324.49071921c-25.90410718 0-46.88496772 20.98086053-46.88496854 46.84047308 0 25.89998731 20.98086053 46.88908758 46.88496854 46.88908759h140.6137044V571.49383127c0 25.90410718 20.98580438 46.88908758 46.8890876 46.88908841 25.90081129 0 46.88579169-20.98580438 46.88579167-46.88908841V430.88424673h140.61370442c25.90410718 0 46.88908758-20.98992426 46.8890884-46.88908758 0-25.85961255-20.98498042-46.88908758-46.8890884-46.84047309H558.88012686v-140.66808672z"  horiz-adv-x="1024" />

    
    <glyph glyph-name="caiwuguanli" unicode="&#58954;" d="M845.61962891 601.8298828100001h-667.23925782c-32.5828125 0-58.99570311-26.41376953-58.99570312-58.99570312v-461.34316406c0-32.58193359 26.41289062-58.99570311 58.99570312-58.99570313h667.23925782c32.5828125 0 58.99570311 26.41376953 58.99570312 58.99570312V542.8341796899999c0 32.58193359-26.41289062 58.99570311-58.99570312 58.99570312zM615.62128906 346.43027343999995c18.5765625 0 27.89384766-9.25839844 27.89384767-27.89296875 0-18.22851563-9.31640625-27.37353516-27.89384767-27.37353516h-70.25449219v-25.40478516h70.25449219c18.5765625 0 27.89384766-9.31640625 27.89384767-27.89384764 0-18.28740234-9.31640625-27.37265625-27.89384767-27.37265626h-70.25449219v-57.81269531c0-12.90585937-1.79472656-21.5859375-5.4984375-25.86884766-3.64570311-4.34003906-11.57431641-6.48193359-23.90009765-6.48193359-10.59082031 0-18.22851563 2.14189453-22.91660156 6.48193359-4.63007812 4.28203125-6.94423828 12.96386719-6.94423829 25.86884766v57.81269531h-69.21386718c-18.63369141 0-27.89296875 9.08525391-27.89296875 27.37265626 0 18.5765625 8.96923828 27.89384766 26.85146484 27.89384765h70.25537109v25.40478515h-69.21386718c-18.63369141 0-27.89296875 9.14326172-27.89296875 27.37353516 0 18.63457031 8.96923828 27.89296875 26.85146484 27.89296875h39.35214844c-9.95361328 16.26240234-20.08037109 32.81308594-30.38203125 49.59580078-10.30078125 16.72382813-20.42841797 33.27539063-30.38203124 49.53691406-5.32441406 8.62207031-7.17626953 16.26240234-5.72958986 22.91660157 1.5046875 6.65595703 5.55556641 12.26953125 12.21152344 16.95673828 7.63769531 5.26552734 14.69794922 7.46455078 21.17988281 6.42304687 6.48193359-0.984375 12.67382813-6.42304688 18.69257813-16.43554688l75.69404297-126.50449218c12.26953125 20.94960938 24.53730469 41.78232422 36.86396484 62.50078125a45609.90732422 45609.90732422 0 0 1 36.86308594 62.55791015c3.64570311 5.95986327 7.06025391 10.35878906 10.18564453 13.19501953 3.18251953 2.77734375 6.42304688 4.45517578 9.72246094 4.9772461 3.29853516 0.46318359 6.65419922 0 9.95361328-1.5046875s6.82910156-3.41455078 10.47392578-5.72958985c8.27490234-5.32441406 12.78896484-10.87998047 13.42617188-16.66669921 0.69433594-5.84472656-1.67871094-13.36816406-6.94423828-22.68457032l-59.7805664-99.13359375h38.36865233z m143.19667969 310.18623047H265.18203125c-24.53730469 0-44.44453125 19.90722656-44.44453125 44.44453125s19.90722656 44.44453125 44.44453125 44.44453125h493.6359375c24.53730469 0 44.44453125-19.90722656 44.44453125-44.44453125s-19.90722656-44.44453125-44.44453125-44.44453125z"  horiz-adv-x="1024" />

    
    <glyph glyph-name="dingdanchuku" unicode="&#58890;" d="M892.498 384.008c0-6.171-2.258-11.509-6.761-16.017L693.14 175.57299999999998c-4.508-4.509-9.73-6.883-15.9-6.883-6.171 0-11.515 2.374-15.901 6.883-4.509 4.509-6.761 9.731-6.761 15.901V293.289H401.342c-6.052 0-11.392 2.374-15.901 6.884-4.509 4.508-6.764 9.729-6.764 15.9V452.005c0 6.049 2.254 11.392 6.764 15.901 4.509 4.389 9.849 6.646 15.901 6.646h253.235V576.486c0 6.17 2.252 11.51 6.761 16.02 4.387 4.39 9.73 6.645 15.901 6.645 6.17 0 11.393-2.255 15.9-6.645l192.598-192.597c4.503-4.509 6.761-9.847 6.761-15.901zM508.497 1.8479999999999563H268.614c-77.844 0-141.151 63.245-141.151 141.091V624.8399999999999c0 77.786 63.307 141.093 141.151 141.093h239.883c25.157 0 45.569-20.41 45.569-45.567s-20.412-45.567-45.569-45.567H268.614c-27.588 0-50.016-22.428-50.016-49.958v-481.902c0-27.531 22.428-49.956 50.016-49.956h239.883c25.157 0 45.569-20.411 45.569-45.568 0-25.156-20.412-45.567-45.569-45.567z"  horiz-adv-x="1024" />

    
    <glyph glyph-name="dingdanruku" unicode="&#58891;" d="M382.8 399.993l193.589 193.59c4.531 4.412 9.779 6.679 15.982 6.679 6.201 0 11.568-2.267 15.984-6.679 4.531-4.533 6.798-9.901 6.798-16.104V475.02h254.538c6.084 0 11.45-2.268 15.984-6.68 4.53-4.533 6.799-9.901 6.799-15.983v-136.633c0-6.202-2.269-11.451-6.799-15.986-4.534-4.53-9.9-6.915-15.984-6.915H615.153v-102.339c0-6.207-2.267-11.45-6.798-15.985-4.416-4.53-9.783-6.916-15.984-6.916-6.203 0-11.451 2.386-15.982 6.916L382.8 367.905c-4.533 4.535-6.8 9.902-6.8 16.105 0 6.084 2.267 11.45 6.8 15.983zM506.49-0.125H265.369c-78.245 0-141.88 63.574-141.88 141.821V626.085c0 78.187 63.635 141.82 141.88 141.82H506.49c25.288 0 45.803-20.516 45.803-45.803S531.777 676.3 506.49 676.3H265.369c-27.732 0-50.274-22.542-50.274-50.215v-484.389c0-27.673 22.542-50.216 50.274-50.216H506.49c25.288 0 45.803-20.516 45.803-45.802 0-25.287-20.516-45.803-45.803-45.803z"  horiz-adv-x="1024" />

    
    <glyph glyph-name="chaxun" unicode="&#58900;" d="M889.9296875 81.83203125l-160.48828125 160.83984375c95.71289063 132.5390625 83.58398438 317.72460938-35.06835938 436.72851563-63.36914063 63.54492188-148.359375 98.70117188-238.71093749 98.70117187s-175.34179688-35.15625-238.71093751-98.70117188C84.8515625 546.94921875 84.8515625 333.28710937000005 216.95117187 200.8359375c63.36914063-63.54492188 148.359375-98.70117188 238.71093751-98.70117188 71.45507813 0 140.2734375 23.02734375 196.87499999 63.54492188L814.43164063 6.0703125c10.81054688-10.81054688 24.2578125-16.25976563 37.79296874-16.25976563s26.98242188 5.44921875 37.79296875 16.25976563c21.53320313 20.30273438 21.53320313 55.45898438-0.08789062 75.76171875z m-272.37304688 195.99609375C574.40234375 234.5859375 516.39453125 210.24023437000005 455.66210937 210.24023437000005s-118.65234375 24.34570313-161.80664062 67.58789063c-89.03320313 89.20898438-89.03320313 235.28320313 0 325.8984375 43.15429688 43.2421875 101.16210938 67.58789063 161.80664063 67.58789063s118.65234375-24.34570313 161.80664062-67.58789063c89.03320313-89.20898438 89.03320313-235.28320313 0.08789063-325.8984375z"  horiz-adv-x="1024" />

    
    <glyph glyph-name="kehu" unicode="&#58972;" d="M588.8 273.06656250000003s-31.9996875 8.533125-40.53375 12.7996875c-17.06625 10.666875-27.733125 32.000625-27.733125 53.334375 0 23.465625 19.2 42.665625 32.000625 57.6 31.9996875 38.4 49.0659375 89.5996875 49.0659375 147.1996875 0 119.465625-85.333125 215.465625-189.86625 215.465625S221.86625 661.3340625 221.86625 541.8675000000001c0-57.6 19.2-108.7996875 49.066875-147.1996875 19.2-10.666875 32.000625-34.134375 32.000625-57.6 0-21.33375-10.666875-40.53375-27.7340625-53.334375v-2.1328125c-2.1328125 0-4.265625-2.1328125-4.265625-2.1328125-10.6678125-6.4003125-21.33375-10.666875-34.134375-10.666875-81.065625-27.733125-149.3334375-70.3996875-189.86625-123.733125h2.1328125C38.4003125 130.13250000000005 34.13375 113.06624999999997 34.13375 96c0-51.1996875 42.665625-93.86625 96-93.86625h563.199375c55.4671875 0 98.13375 40.5328125 98.13375 93.86625 0 21.33375-8.533125 40.53375-19.2 57.6-40.53375 53.3334375-104.533125 93.86625-183.466875 119.4665625z m381.86625-93.86625c-36.26625 44.799375-91.7325 83.199375-162.133125 104.533125 0 0-27.733125 6.4003125-36.26625 10.666875-14.934375 10.6659375-23.4665625 27.733125-23.4665625 46.933125 0 21.3328125 17.06625 38.4 27.733125 49.066875 27.733125 34.1334375 44.8003125 78.9328125 44.8003125 130.1334375 0 104.533125-74.6671875 192-168.534375 192-14.9325 0-29.8659375-2.13375-42.665625-6.4003125 31.9996875-46.933125 49.0659375-102.4003125 49.0659375-164.266875 0-66.133125-23.465625-130.1334375-63.999375-183.466875l-4.2665625-4.265625v-2.13375c-4.2675-4.2665625-10.666875-10.666875-12.800625-17.0671875 0-2.1328125 0-2.1328125 2.13375-2.1328125 4.265625-2.13375 10.666875-4.2665625 17.06625-4.2665625h2.13375l8.533125-4.2675c87.466875-27.733125 162.133125-76.8 211.2-138.665625 21.33375-27.7340625 34.1334375-59.73375 34.1334375-93.8671875 0-19.2-4.2665625-34.1334375-10.666875-51.1996875h61.8665625c49.066875 0 87.466875 36.26625 87.466875 83.199375-2.13375 23.4665625-8.533125 40.53375-21.33375 55.4671875z m0 0"  horiz-adv-x="1024" />

    
    <glyph glyph-name="cangkuguanli" unicode="&#58920;" d="M956.375 451.5l-427.5 337.5c-5.625 5.625-11.25 5.625-16.875 5.625-5.625 0-11.25 0-11.25-5.625l-427.5-337.5C62 440.25 62 429 67.625 423.375H146.375v-393.75c0-33.75 22.5-56.25 56.25-56.25h84.375v337.5h450v-337.5h84.375c33.75 0 56.25 22.5 56.25 56.25v393.75h78.75c5.625 5.625 5.625 16.875 0 28.125zM540.125 142.125h-56.25v56.25H371.375v-225h281.25v225H540.125z"  horiz-adv-x="1024" />

    
    <glyph glyph-name="yonghuchaxun" unicode="&#59464;" d="M235.29244445 592.74429667a213.59881443 208.74429667 90 1 1 417.48859221 0 213.59881443 208.74429667 90 1 1-417.48859221 0ZM570.25422222 112.14696333999996c0 72.81777778 43.69066667 135.9265189 106.79940779 165.05362887-38.83614777 24.27259221-87.38133333 38.83614777-135.9265189 38.83614891H366.36444445c-150.49007445 0-266.9985189-121.36296334-266.9985189-276.70755555v-19.41807446c0-63.10874112 121.36296334-63.10874112 266.9985189-63.10874112h291.2711111c-53.39970333 33.98163001-87.38133333 92.23585223-87.38133333 155.34459335zM987.74281443-18.925036660000046l-92.23585109 77.67229554c9.70903666 19.41807445 14.56355555 38.83614777 14.56355556 63.10874112 0 77.67229667-63.10874112 140.78103666-140.7810378 140.78103666s-140.78103666-63.10874112-140.78103665-140.78103666 63.10874112-140.78103666 140.78103665-140.78103666c33.98163001 0 67.96325888 14.56355555 92.23585223 33.98162887l92.23585224-77.67229554 33.98162886 43.69066667z m-218.45333333 58.25422223c-43.69066667 0-82.52681443 33.98163001-82.52681443 77.67229553 0 43.69066667 33.98163001 77.67229667 82.52681443 77.67229668s82.52681443-33.98163001 82.52681557-77.67229668c0-43.69066667-38.83614777-77.67229667-82.52681557-77.67229553z"  horiz-adv-x="1024" />

    
    <glyph glyph-name="dingdanguanli" unicode="&#59142;" d="M1004.96017423 152.01874132v-57.99531376l-66.28036031-22.78387439-12.42756741-31.06891851 31.06891851-62.13783704-41.42522427-41.42522429-62.13783705 31.06891852c-10.35630577-4.14252206-18.64135111-8.28504534-28.99765687-12.4275674l-22.78387439-66.28035911h-57.99531376l-22.78387439 66.28035911c-10.35630577 4.14252206-20.71261275 8.28504534-28.99765688 12.4275674l-62.13783704-31.06891852-41.42522429 41.42522429 31.06891853 62.13783704-12.42756742 31.06891851-66.2803603 22.78387439v57.99531376l66.2803603 22.78387439 12.42756742 31.06891852-31.06891853 62.13783704 41.42522429 41.42522428 62.13783704-31.06891852c10.35630577 4.14252206 18.64135111 8.28504534 28.99765688 12.42756742l22.78387439 66.2803591H801.97657244l22.78387439-66.2803591c10.35630577-4.14252206 20.71261275-8.28504534 28.99765687-12.42756742l62.13783705 31.06891852 41.42522427-41.42522428-31.06891851-62.13783704 12.42756741-31.06891852 66.28036031-22.78387439z m-231.98125868 57.99531498c-47.63900799 0-86.99297185-39.35396386-86.99297185-86.99297185 0-47.63900799 39.35396386-86.99297185 86.99297185-86.99297186 47.63900799 0 86.99297185 39.35396386 86.99297186 86.99297186 0 49.71026963-39.35396386 86.99297185-86.99297186 86.99297185z m-28.99765687 202.98360059h-41.42522551l-12.4275674-39.35396266-8.28504413-26.92639645-24.85513481 12.4275674-37.28270222 18.64135112-28.9976581-28.99765689-41.42522429-41.42522549-28.99765688-28.99765689 18.64135111-37.28270221 12.42756741-24.85513482-26.92639645-8.28504534-39.35396386-12.42756741v-128.41819614H135.03045571c-64.20909868 0-115.99062873 51.78153127-115.99062994 115.99062873v579.95314608c0 64.20909868 51.78153127 115.99062873 115.99062994 115.99062874h579.95314488c64.20909868 0 115.99062873-51.78153127 115.99062994-115.99062874V415.06891852h-86.99297185z m-565.45431704-115.99062874h202.98360058c24.85513482 0 43.49648592 18.64135111 43.49648593 43.49648593 0 24.85513482-18.64135111 43.49648592-43.49648593 43.49648592H178.52694164c-24.85513482 0-43.49648592-18.64135111-43.49648593-43.49648592 0-22.78387317 18.64135111-43.49648592 43.49648593-43.49648593z m0 173.9859437h347.97188741c24.85513482 0 43.49648592 18.64135111 43.49648593 43.49648593s-18.64135111 43.49648592-43.49648593 43.49648592H178.52694164c-24.85513482 0-43.49648592-18.64135111-43.49648593-43.49648592s18.64135111-43.49648592 43.49648593-43.49648593z m492.96017302 260.97891556H178.52694164c-24.85513482 0-43.49648592-18.64135111-43.49648593-43.49648593 0-24.85513482 18.64135111-43.49648592 43.49648593-43.49648593h492.96017302c24.85513482 0 43.49648592 18.64135111 43.49648593 43.49648593 0 24.85513482-18.64135111 43.49648592-43.49648593 43.49648593z m0 0"  horiz-adv-x="1024" />

    
    <glyph glyph-name="mima" unicode="&#58886;" d="M759.49981279-66H260.7498125c-63.74999971 0-112.5 48.75000029-112.5 112.5v356.24999971c-3.75000029 63.74999971 45 116.25000029 108.74999971 116.25000029h33.75c-3.75000029 15.00000029-3.75000029 29.99999971-3.74999942 45V609c0 123.75 101.25 225 225 225s225-101.25 225-225v-45c0-15.00000029 0-29.99999971-3.75000029-45h29.99999971c63.74999971 0 112.5-48.75000029 112.5-112.5v-356.24999971c3.75000029-63.74999971-45-116.25000029-108.74999971-116.25000029h-7.49999971z m-292.5 281.25v-101.25c0-26.25000029 18.74999971-45 45-45s45 18.74999971 45 45v101.25c29.99999971 15.00000029 45 45 45 78.75 0 48.75000029-41.24999971 90-90 90-48.75000029 0-90-41.24999971-90-90 0-33.75 15.00000029-63.74999971 45-78.75zM646.99981279 609c0 74.99999971-60.00000029 135-135 135S376.99981279 683.99999971 376.99981279 609v-90h270V609z"  horiz-adv-x="1024" />

    
    <glyph glyph-name="congzhechufa" unicode="&#58981;" d="M941.11232 592.18432c-10.04032 7.3728-16.99328 12.8-24.37632 17.8176-84.58752 57.4464-169.472 114.47808-253.952 172.12928-42.29632 28.8768-83.968 58.7776-125.8496 88.2688h-4.60288v-232.1408h-387.9936L144.3328 163.84h136.4992l0.00512 336.08192h252.30848v-184.2176c137.32352 92.9792 271.5648 184.0128 407.96672 276.48zM220.3392 142.85824c-70.5536 0-127.74912-57.19552-127.74912-127.74912S149.7856-112.64 220.3392-112.64s127.74912 57.19552 127.74912 127.74912-57.19552 127.74912-127.74912 127.74912z m0-204.93824c-42.62912 0-77.18912 34.56-77.18912 77.18912 0 42.624 34.56 77.18912 77.18912 77.18912s77.18912-34.56512 77.18912-77.18912c0-42.62912-34.56-77.18912-77.18912-77.18912z"  horiz-adv-x="1024" />

    
    <glyph glyph-name="yichang" unicode="&#58988;" d="M913.30403717 127.54218749999995L572.87200591 699.5582812499999c-16.554375 26.1225-30.5015625 47.199375-61.16343749 47.199375-30.628125 0-47.96296875-24.87375-61.16343751-47.199375L110.08778717 127.54218749999995c-14.326875-22.17796875-24.384375-48.57890625-18.005625-71.5584375 5.59828125-20.1403125 27.15609375-33.8596875 60.28171875-33.8596875h718.66828125c41.60953125 0 55.5525 19.65515625 59.53078125 30.0628125 9.13359375 23.810625-2.20640625 51.00046875-17.25890625 75.3553125zM470.17919341 510.47390625c0 23.08921875 18.71859375 41.80359375 41.799375 41.80359375 23.09765625 0 41.8078125-18.71859375 41.8078125-41.80359375v-195.091875c0-23.08078125-18.714375-41.80359375-41.8078125-41.80359375-23.085 0-41.799375 18.71859375-41.799375 41.80359375V510.47390625z m41.799375-376.498125c-24.86953125 0-45.0140625 20.15296875-45.0140625 45.02671875 0 24.8653125 20.14453125 45.0140625 45.0140625 45.0140625s45.0225-20.14875 45.0225-45.0140625c0-24.86953125-20.15296875-45.02671875-45.0225-45.02671875z m0 0"  horiz-adv-x="1024" />

    
    <glyph glyph-name="kucunguanli" unicode="&#58933;" d="M831.152 432v-384a48 48 0 0 0-48-48H210.848a48 48 0 0 0-48 48V432H81.92a48 48 0 0 0-26.736 87.84L496.976 816l441.744-296.16A48 48 0 0 0 912.032 432h-80.88zM305.408 432v-96h383.904V432H305.408z m0-192v-96h383.904v96H305.408z"  horiz-adv-x="1024" />

    
    <glyph glyph-name="CPjiesuan" unicode="&#58946;" d="M248.90026667 645.25653333a182.272 182.272 0 1 1 364.544 0 182.272 182.272 0 1 1-364.544 0zM510.3616 134.41706667000005c0 97.75786667 53.93066667 182.0672 133.12 227.39626666a411.648 411.648 0 0 1-206.91626667 56.59306667c-229.10293333 0-414.65173333-181.99893333-417.51893333-407.41546667h523.53706667a258.73066667 258.73066667 0 0 0-32.22186667 123.42613334z m424.07253333-45.2608a32.768 32.768 0 0 0 0-65.39946667h-105.40373333v-60.96213333a32.768 32.768 0 0 0-65.39946667 0V23.89333333000002h-105.40373333a32.768 32.768 0 0 0 0 65.39946667h105.40373333v44.4416h-105.40373333a32.768 32.768 0 0 0 0 65.39946667h80.34986667l-71.40693334 71.33866666a32.5632 32.5632 0 1 0 46.14826667 46.14826667l83.01226667-83.01226667 83.01226666 83.01226667a32.5632 32.5632 0 1 0 46.14826667-46.14826667l-71.40693333-71.40693333h80.34986666a32.768 32.768 0 0 0 0-65.39946667h-105.40373333v-44.4416l105.40373333-0.06826666z"  horiz-adv-x="1024" />

    
    <glyph glyph-name="fukuandan" unicode="&#58906;" d="M364.83430246 805.875h294.33139508c21.58430246 0 39.24418606-17.65988361 39.24418607-39.24418606v-39.24418607c0-21.58430246-17.65988361-39.24418606-39.24418607-39.24418607H364.83430246c-21.58430246 0-39.24418606 17.65988361-39.24418607 39.24418607V766.63081394c0 21.58430246 17.65988361 39.24418606 39.24418607 39.24418606zM796.52034918 707.76453525h-58.86627951v-19.62209345c0-21.58430246-17.65988361-39.24418606-39.24418606-39.24418607H325.59011639c-21.58430246 0-39.24418606 17.65988361-39.24418606 39.24418607V707.76453525H227.47965082C184.31104673 707.76453525 148.99127869 672.44476721 148.99127869 629.27616311v-588.66279097c0-43.16860492 35.31976721-78.48837213 78.48837212-78.48837214h569.04069837c43.16860492 0 78.48837213 35.31976721 78.48837213 78.48837214V629.27616311c0 43.16860492-35.31976721 78.48837213-78.48837213 78.48837214z m-156.97674425-313.95348852c11.77325573 0 19.62209262-7.84883689 19.62209261-19.62209346v-19.62209262c0-11.77325573-7.84883689-19.62209262-19.62209262-19.62209344h-98.11046557v-58.86627869h98.11046558c11.77325573 0 19.62209262-7.84883689 19.62209261-19.62209344v-19.62209262c0-11.77325573-7.84883689-19.62209262-19.62209261-19.62209344h-98.11046558v-98.11046475c0-11.77325573-7.84883689-19.62209262-19.62209262-19.62209346h-19.62209346c-11.77325573 0-19.62209262 7.84883689-19.62209261 19.62209346v98.11046475h-98.11046558c-11.77325573 0-19.62209262 7.84883689-19.62209262 19.62209344v19.62209262c0 11.77325573 7.84883689 19.62209262 19.62209262 19.62209344h98.11046558v58.86627869h-98.11046558c-11.77325573 0-19.62209262 7.84883689-19.62209262 19.62209344v19.62209262c0 11.77325573 7.84883689 19.62209262 19.62209262 19.62209346h82.41279098l-107.92151147 107.92151147 41.2063951 41.20639507 111.84593031-111.84593032 111.84593033 111.84593032 41.20639508-41.20639507-107.92151147-107.92151147H639.54360492z"  horiz-adv-x="1024" />

    
    <glyph glyph-name="xlzy" unicode="&#59823;" d="M510.6 24.399999999999977l-56.2-57.8h224.7L623 24.399999999999977H510.6z m202.2 427.9C707.2 646 561.2 802.1 384.2 802.1 210.1 802.1 64 646 64 452.3c0-98.3 36.5-185 95.5-248.6l207.9-225.5c11.2-11.6 30.9-11.6 42.1 0l207.9 225.5c58.9 63.6 95.4 153.2 95.4 248.6zM384.2 342.4c-70.2 0-126.4 57.8-126.4 130.1S314 602.6 384.2 602.6s126.4-57.8 126.4-130.1-56.2-130.1-126.4-130.1z m382 144.6v-26c0-34.7-5.6-69.4-14-104.1 44.9 0 81.5-37.6 81.5-81s-36.5-81-81.5-81c-25.3 0-47.7 11.6-61.8 28.9-11.2-14.5-22.5-28.9-36.5-43.4l-56.2-60.7c0-2.9 0-2.9 2.8-5.8l134.8-141.7c8.4-8.7 19.7-8.7 28.1 0L898.2 111c39.3 40.5 61.8 95.4 61.8 156.1 0 118.7-87.1 211.2-193.8 219.9z"  horiz-adv-x="1024" />

    
    <glyph glyph-name="lk_zhongzhuan" unicode="&#58964;" d="M170.66666667 665.25866667h118.784L405.504 520.53333333l-77.824-95.57333333-98.304 122.88H170.66666667c-32.768 0-60.07466667 27.30666667-60.07466667 60.07466667s25.94133333 57.344 60.07466667 57.344z m735.91466666-518.82666667l-125.61066666-95.57333333c-9.55733333-8.192-36.864-12.288-45.056-2.73066667v53.248H587.09333333L471.04 246.10133333l77.824 96.93866667 98.304-122.88h88.74666667v51.88266667c8.192 8.192 36.864 10.92266667 45.056 2.73066666l125.61066666-95.57333333c9.55733333-9.55733333 9.55733333-23.21066667 0-32.768z m0 442.368l-125.61066666-95.57333333c-8.192-8.192-36.864-5.46133333-45.056 4.096v49.152h-88.74666667L289.45066667 100.01066666999998H170.66666667c-32.768 0-60.07466667 25.94133333-60.07466667 60.07466666 0 32.768 25.94133333 60.07466667 60.07466667 60.07466667h60.07466666l356.352 446.464h148.82133334v54.61333333c8.192 8.192 36.864 4.096 45.056-5.46133333l125.61066666-95.57333333c9.55733333-9.55733333 9.55733333-23.21066667 0-31.40266667z"  horiz-adv-x="1024" />

    
    <glyph glyph-name="kaipiao" unicode="&#58979;" d="M913.03997802 480.51956177H933.875V656.62106323C933.81732178 709.90338135 891.34967041 753.07717897 838.94818115 753.140625H185.06253052C132.66021729 753.0722351100001 90.19338989 709.8984375 90.125 656.62106323v-176.10150146h20.84078979c52.43362427 0 94.93753052-43.21087646 94.93753052-96.51956177 0-53.30374146-42.50390625-96.52532959-94.93753052-96.52532959H90.125v-176.09078979C90.19338989 58.1015625 132.65527344 14.922821030000023 185.06253052 14.859375h653.88482666c52.40231323 0.05767822 94.86914063 43.23724365 94.92681884 96.52532959V287.47467041000004h-20.83502196C860.60552979 287.47467041000004 818.10656739 330.69543457 818.10656739 384c0.00082398 53.30950928 42.4989624 96.51956177 94.93341063 96.51956177z m-244.04479979-182.02835083c9.48147583-0.73828125 16.95904541-4.45111084 22.4277649-11.12200928 5.46295166-6.67089844 8.56933594-14.64450073 9.29196166-23.91503906-0.72262573-9.63967895-3.82818604-17.70309449-9.29196166-24.19436646-5.46871948-6.48632813-12.94628906-10.09863281-22.4277649-10.84762573l-105.02545167 0.55865478v-58.9520874c-1.46090698-31.51950073-18.41500854-47.27636719-50.86724853-47.27636719-16.04690551 0-28.54000854 3.89163207-37.47271729 11.68066407-8.93847655 7.78903198-13.76367188 19.64849854-14.49700928 35.59570312v57.83889771H355.55853271c-9.84567261 0.7432251-17.41305542 4.91500854-22.69720458 12.51370239-5.28909302 7.60446167-8.47952271 16.03619385-9.57128907 25.30755615 1.09176636 9.26559449 4.28219604 16.87005615 9.57128907 22.80267334 5.28414917 5.93261719 12.85153198 9.27053833 22.69720458 10.00881957h105.57421875v70.35836793l-105.57421875 0.55371094c-9.84567261 0.7432251-17.41305542 4.26654052-22.69720458 10.56829834-5.28909302 6.30670166-8.47952271 14.27536011-9.57128907 23.91503907 1.09176636 9.27053833 4.28219604 16.87005615 9.57128907 22.80267332 5.28414917 5.93261719 12.85153198 9.26559449 22.69720458 10.00881959h78.76950073l-73.2958374 131.25585938c-3.64361573 4.45111084-7.11419677 10.09863281-10.39361572 16.95904541-3.29095459 6.8604126-4.7411499 14.37011719-4.37695313 22.5282898 1.82427979 10.38372802 5.46871948 18.81546021 10.93743898 25.30755615 5.46871948 6.48632813 15.67776489 10.65728761 30.63372802 12.50875854 8.7588501-0.7432251 16.59567261-3.796875 23.51953125-9.17578125 6.93457031-5.3739624 12.58209229-11.21676636 16.95904541-17.51852417L511.45700073 463.95025635l91.34664917 155.72460938c4.37695313 6.30670166 10.03024292 11.86523438 16.95904541 16.69042968 6.92962646 4.81448364 14.765625 7.78326416 23.51953125 8.89068604 5.47366333-0.36914063 10.48919677-1.10742188 15.04495241-2.2197876s8.56933594-2.96383667 12.03414915-5.56347656c3.46481323-2.59469604 6.38085938-6.30175781 8.7489624-11.12200928 2.37304688-4.82025146 4.10256958-11.12695313 5.19433594-18.91021729 0-10.75286865-3.64361573-20.95120239-10.93167114-30.59088135l-84.7869873-140.15231323h80.40921021c9.48147583-0.7432251 16.95904541-4.07620239 22.42776488-10.00881959 5.46295166-5.93261719 8.56933594-13.53131104 9.29196168-22.80267332-0.72262573-9.63967895-3.91305542-17.79785156-9.57128906-24.46875-5.64752198-6.67584229-13.21490479-10.38867188-22.6972046-11.12695313l-104.47750855-0.55865479v-69.24023437h105.02627564z"  horiz-adv-x="1024" />

    
    <glyph glyph-name="cangchuguanli" unicode="&#58959;" d="M251.1875 719.90625h124.125c41.8125 0 94.21875-42.09375 94.3125-83.8125v-294.28125h294.28125c54.46875 0 84.09375-81 84.09375-84.09375l0.5625-134.0625c0-20.0625-7.96875-39.28125-22.21875-53.4375-14.15625-14.15625-33.46875-22.125-53.53125-22.125H251.1875c-20.0625 0-39.28125 7.96875-53.53125 22.125-14.15625 14.15625-22.21875 33.375-22.21875 53.4375V644.34375c0 20.0625 7.96875 39.28125 22.21875 53.4375 14.15625 14.25 33.46875 22.21875 53.53125 22.125zM848.5625 691.96875v-238.21875c0-15.46875-12.5625-28.03125-28.03125-28.03125H581.84375c-15.46875 0-28.03125 12.5625-28.03125 28.03125V691.96875c0 15.46875 12.5625 28.03125 28.03125 28.03125H820.4375c7.40625 0 14.625-2.90625 19.875-8.15625s8.25-12.375 8.25-19.875z"  horiz-adv-x="1024" />

    
    <glyph glyph-name="gongsi" unicode="&#59123;" d="M819.2 38.39999999999998V729.6l-108.8 96-364.8-137.6v-35.2l329.6 112v-777.6H896v51.2h-76.8zM227.2 252.79999999999995l172.8 35.2v86.4l-172.8-44.8v-76.8z m0-265.6h172.8v92.8l-172.8-12.8v-80z m0 134.4l172.8 16V224l-172.8-28.8v-73.6z m0 265.6l172.8 48v89.6l-172.8-57.6v-80z m364.8 224l-96 60.8L128 537.6v-553.6h48V512l275.2 89.6v-614.4h140.8V611.2z"  horiz-adv-x="1024" />

    
    <glyph glyph-name="gongsi1" unicode="&#58921;" d="M887.13858698 779.03178486H500.53725739a19.09824109 19.09824109 0 0 1-19.04111722-19.04111802v-751.98133368a19.09824109 19.09824109 0 0 1 19.04111722-19.04111802h386.6013296a19.09824109 19.09824109 0 0 1 19.04111799 19.04111802V759.99066684a19.09824109 19.09824109 0 0 1-19.041118 19.04111802z m-50.45896165-565.26413553a11.42467035 11.42467035 0 0 0-11.42467035-11.42467111h-262.76742175a11.42467035 11.42467035 0 0 0-11.42467035 11.42467111v38.08223449a11.42467035 11.42467035 0 0 0 11.42467034 11.4246711h262.76742176a11.42467035 11.42467035 0 0 0 11.42467035-11.4246711z m0 182.49959092a11.42467035 11.42467035 0 0 0-11.42467035-11.42467112h-262.76742175a11.42467035 11.42467035 0 0 0-11.42467035 11.42467112v38.08223448a11.42467035 11.42467035 0 0 0 11.42467034 11.42467112h262.76742176a11.42467035 11.42467035 0 0 0 11.42467035-11.42467112z m0 182.49959094a11.42467035 11.42467035 0 0 0-11.42467035-11.42467113h-262.76742175a11.42467035 11.42467035 0 0 0-11.42467035 11.42467113v38.08223447a11.42467035 11.42467035 0 0 0 11.42467034 11.42467111h262.76742176a11.42467035 11.42467035 0 0 0 11.42467035-11.42467111zM887.13858698-11.5078125H500.53725739a19.53618642 19.53618642 0 0 0-19.51714565 19.51714566V759.99066684A19.53618642 19.53618642 0 0 0 500.53725739 779.5078125h386.6013296a19.53618642 19.53618642 0 0 0 19.51714564-19.51714566v-751.98133368a19.53618642 19.53618642 0 0 0-19.51714565-19.51714566zM500.53725739 778.55575644A18.58413037 18.58413037 0 0 1 481.97216779 759.99066684v-751.98133368a18.58413037 18.58413037 0 0 1 18.5650896-18.56508959h386.60132959a18.58413037 18.58413037 0 0 1 18.5650896 18.56508959V759.99066684A18.58413037 18.58413037 0 0 1 887.13858698 778.55575644z m324.65105376-576.68880586h-262.76742177a11.91021875 11.91021875 0 0 0-11.90069875 11.90069875v38.0822345a11.91021875 11.91021875 0 0 0 11.90069875 11.90069874h262.76742177a11.91021875 11.91021875 0 0 0 11.90069876-11.90069874v-38.0822345a11.91021875 11.91021875 0 0 0-11.87213723-11.90069875z m-262.76742177 60.93157593a10.95816347 10.95816347 0 0 1-10.94864269-10.94864268v-38.0822345a10.95816347 10.95816347 0 0 1 10.94864269-10.9486427h262.76742177a10.95816347 10.95816347 0 0 1 10.9486427 10.9486427v38.0822345a10.95816347 10.95816347 0 0 1-10.9486427 10.94864268z m262.76742177 121.56801499h-262.76742177a11.91021875 11.91021875 0 0 0-11.90069875 11.90069876v38.08223447a11.91021875 11.91021875 0 0 0 11.90069875 11.90069876h262.76742177a11.91021875 11.91021875 0 0 0 11.90069876-11.90069876v-38.08223447a11.91021875 11.91021875 0 0 0-11.87213723-11.90069876z m-262.76742177 60.93157594a10.95816347 10.95816347 0 0 1-10.94864269-10.94864271v-38.08223447a10.95816347 10.95816347 0 0 1 10.94864269-10.94864271h262.76742177a10.95816347 10.95816347 0 0 1 10.9486427 10.94864271v38.08223447a10.95816347 10.95816347 0 0 1-10.9486427 10.94864271z m262.7959833 121.56801499h-262.76742176a11.91021875 11.91021875 0 0 0-11.90069798 11.90069876v38.08223447a11.91021875 11.91021875 0 0 0 11.90069798 11.90069876h262.76742176a11.91021875 11.91021875 0 0 0 11.90069877-11.90069876v-38.08223447a11.91021875 11.91021875 0 0 0-11.90069877-11.90069876z m-262.76742176 60.93157592a10.95816347 10.95816347 0 0 1-10.94864269-10.94864269v-38.08223447a10.95816347 10.95816347 0 0 1 10.94864269-10.94864271h262.76742176a10.95816347 10.95816347 0 0 1 10.94864271 10.94864271v38.08223447a10.95816347 10.95816347 0 0 1-10.94864271 10.94864269zM393.9069993 506.68668025h-257.05508696a19.09824109 19.09824109 0 0 1-19.04111724-19.04111724v-479.29348988a19.09824109 19.09824109 0 0 1 19.04111723-19.04111726h257.05508697a19.09824109 19.09824109 0 0 1 19.04111725 19.04111725V487.64556301a19.09824109 19.09824109 0 0 1-19.04111725 19.04111724z m-36.17812313-353.77444302a11.42467035 11.42467035 0 0 0-11.42467111-11.42467034h-161.84949848a11.42467035 11.42467035 0 0 0-11.42467033 11.42467034v38.08223525a11.42467035 11.42467035 0 0 0 11.42467033 11.42467035h161.84949848a11.42467035 11.42467035 0 0 0 11.42467111-11.42467035z m0 182.56623476a11.42467035 11.42467035 0 0 0-11.42467111-11.42467034h-161.84949848a11.42467035 11.42467035 0 0 0-11.42467033 11.42467034v38.12031755a11.42467035 11.42467035 0 0 0 11.42467033 11.42467035h161.84949848a11.42467035 11.42467035 0 0 0 11.42467111-11.42467035zM393.9069993-11.165072539999983h-257.05508696A19.53618642 19.53618642 0 0 0 117.33476745 8.352073130000008V487.64556301a19.53618642 19.53618642 0 0 0 19.51714489 19.51714566h257.05508696a19.53618642 19.53618642 0 0 0 19.51714566-19.51714566v-479.29348988a19.53618642 19.53618642 0 0 0-19.51714566-19.51714566z m-257.05508696 517.37572514A18.58413037 18.58413037 0 0 1 118.28682273 487.64556301v-479.29348988a18.58413037 18.58413037 0 0 1 18.56508961-18.56508961h257.05508696a18.58413037 18.58413037 0 0 1 18.56508961 18.5650896V487.64556301a18.58413037 18.58413037 0 0 1-18.56508961 18.56508959z m209.45229271-365.19911335h-161.84949847a11.91021875 11.91021875 0 0 0-11.90069875 11.90069798v38.08223526a11.91021875 11.91021875 0 0 0 11.90069875 11.90069875h161.84949847a11.91021875 11.91021875 0 0 0 11.90069875-11.90069875v-38.08223526a11.91021875 11.91021875 0 0 0-11.90069875-11.90069797z m-161.84949847 60.93157593a10.95816347 10.95816347 0 0 1-10.94864269-10.94864269v-38.08223526a10.95816347 10.95816347 0 0 1 10.94864269-10.9486427h161.84949847a10.95816347 10.95816347 0 0 1 10.94864272 10.9486427v38.08223526a10.95816347 10.95816347 0 0 1-10.94864272 10.94864269z m161.84949847 121.63465883h-161.84949847a11.91021875 11.91021875 0 0 0-11.90069875 11.90069798v38.12031755a11.91021875 11.91021875 0 0 0 11.90069875 11.90069876h161.84949847a11.91021875 11.91021875 0 0 0 11.90069875-11.90069876v-38.08223525a11.91021875 11.91021875 0 0 0-11.90069875-11.94830105z m-161.84949847 60.93157594a10.95816347 10.95816347 0 0 1-10.94864269-10.9486427v-38.08223526a10.95816347 10.95816347 0 0 1 10.94864269-10.94864269h161.84949847a10.95816347 10.95816347 0 0 1 10.94864272 10.94864269v38.12031755a10.95816347 10.95816347 0 0 1-10.94864272 10.94864271z"  horiz-adv-x="1024" />

    
    </font>
</defs>
</svg>
